<?xml version="1.0" encoding="UTF-8"?>
<svg id="Ebene_1" data-name="Ebene 1" xmlns="http://www.w3.org/2000/svg" viewBox="0 0 1418.28 780.59">
  <rect x="448.27" y="298.36" width="1.41" height="14.85" transform="translate(-84.72 407.03) rotate(-45)"/>
  <g>
    <g>
      <g>
        <path d="M1194.9,367.15c4.9,2.45,10.16,2.92,15.96,2.05l45.11-6.81c5.66-.85,13.55,1.06,18.18-2.91l29.16-25c-30.91-16.25-62.89-26.43-96.75-31.21l-24.61-3.47c.47-7.58,1.5-14.36,4.68-21.44,56.83,4.04,141.03,22.73,176.98,68.79,9.99,12.79,15.55,28.86,14.09,45.14-3.81,42.42-45.67,73.38-81.46,92.08-5.93,3.1-9.43,6.65-14.05,11.24l-36.99,36.75c-4.55,4.52-9.57,4.81-15.51,3.59l-50.53-10.4-36.07,7.21-7.8,32.88-12.85,57.14c-1.12,4.99-.35,11.23-3.87,15.4s-11.57,7.58-17.1,7.53c-6.91-.07-12.98-4.7-19.01-7.25-6.64-2.81-4.05-12.93-2.19-22.27-8.35,5.93-14.04,13.38-20.85,20.59l-8.38,3.7-53.25,55.61-39.85,40.3c-1.79,6.05-5.59,10.5-10.17,14.8-6.26,4.65-10.46,10.62-12.63,18.2l-12.43,6.64c-3.18,1.7-5.45,4.71-9.52,4.57-7.4-.27-13.21-5.55-15.22-11.4-2.65-7.71.32-13.95,5.42-19.48s9.11-11.7,16.12-15.18l-2.2-46.06c-1.71-35.88-7.93-70.39-14.44-105.73l-12.55-51.42c-5.93-24.32-12.1-21-30.08-30.72-12.3-6.65-23.34-14-33.86-23.28l-12.11,9.63,17.99,17.45c4.54,4.41,5.76,8.9,6.07,15.21l2.6,52.87c4.83,1.21,11.5,1.08,13.58,5.89,3.2,7.39,3.36,17.84,1.15,25.57-4.88,8.03-16.26,12.65-21.73,20.12-4.68,13.67-10.56,32.75-25.44,30.08l-16.33-2.94-19.6,15.68c-3.93,3.14-8.07,4.83-13.52,3.81l-77.39-14.46c-5.3-.99-9.7-4.88-10.09-10.04l-1.17-15.62-23.98-4.07c-6.95-1.18-12.94-3.1-16.5-10.22l-57.03,45.81c-5.34,4.29-9.04,8.7-13.3,13.95l-19.72,16.91c-4.53,5.63-9,8.23-15.5,10.99-3.15,1.34-5.65,5.72-8.78,5.84-4.67.17-7.74-.49-11.29-3.45-5.54-4.62-8.58-12.85-4.94-19.8,2.84-5.42,8.74-8.7,12.98-12.81,3.99-3.87,7.62-6.66,12.87-9.21,3.21-91.68,12.22-178.4,40.04-265.53-1.79-1.03-4.53-1.45-5.26-3.23-1.64-4-1.9-9.53-.34-13.83l5.97-6.67-15.61-9.79c-5.34,3.12-10.82,4.47-16.79,6.09l-14.26,3.88c-3.57.97-6.82-.75-9.6-2.07l-35.52,11.56,25.03,6.96c1.14.32,4.61,2.13,3.46,3.67-3.84,5.14-11.4,9.98-18.05,8.83l-35.21-6.11c-14.2,8.79-28.92,14.95-44.06,22.18-25.48,12.17-50.86,22.71-78.33,29.47l-38.3,7.95-7.02,26.81c-.92,3.5.7,7.63,1.65,11.1l8.61,31.42c1.24,4.51,3.79,8.17,2.58,13.55-7.54,3.23-15.39,7.57-23.99,8.29-3.71.12-11.26-4-12.6-7.47l-15.4-39.98c-4.98-12.92-9.12-25.42-15.02-37.86-5.79-.19-12.01-1.06-16.91,1.92l-27.95,17.03c-4.78,2.91-9.6,3.45-14.9.49-16.85-9.42-32.69-20.16-48.88-30.86-5.11-3.38-9.84-5.79-15.81-7.33-29.58-7.61-60.53-18.96-82.69-40.23-9.36-8.99-15.72-19.64-18.77-32.4-6.28-26.35,11.32-51.28,31.28-68.49,6.15-5.31,12.56-9.83,18.39-15.53,3.01-2.94,7.49-3.01,11.17-4.94,58.68-30.74,122.01-46.12,188.04-51.76,2.58-.22,2.88,1.11,5.77-.42,3.53-1.87,9.87-.13,14.25-.69,9.85-1.26,18.95-1.17,28.54-.55,4.05.26,7.96-.52,12.27,1.28l-3.51,18.61c-67.66,1.12-134.55,11.83-196.57,40,7.99,2.7,16.25,3.19,24.35,4.69s15.67,3.97,23.95,4.11l7.28-2.25c1.91-1.02,2.29,1.75.21,1.29-1.83.46-3.42.45-4.64,1.99l24.3,4.66c7.33,1.41,14.14,3.63,21.26,5.77,3.09.93,6.27,1.92,9.97,1.13,1.91-.41,2.06,2.12-.65,1.83,6.76,3.94,13.06,8.12,20.55,13.18,1.12-2.5,1.3-5.51,3.28-7.09,9.75-7.8,30.39-8.54,34.03,2.77,1.66.11,2.89.34,3.79,1.27-1.68-.07-3.51,1.18-3.21,2.25,2.93,10.24-11.35,12.42-24.17,12.25-5.42-.07-9.9-1.82-13.84-5.45-.91,2.06-.79,4.59-.06,6.31,12.63,5.14,37.11,3.95,40.91-3.95,1.28-2.67-2.34-7.28-.55-7.88,1.43-.48,3.87,3.66,5.95,7.58s7.37.62,9.08.52c-.68.04,5.15,6.02,6,12.5l22.67,4.05c2.48.44,4.09.29,5.54-1.63,4.84,4.53,16.87,5.35,23.42,3.56l18.11-4.94-1.02-8.98c1.71,2.52,2.02,4.98,2.77,8.33l22.95-7.5-3.04-6.09.69-.62,3.82,6.39,36.23-11.68c.66-2.8,1.34-3.74,1.31-2.23,0,.31,1.1,1.59,1.47,1.48l25.08-7.48c-.77-1.85-1.8-2.85-1.03-4.46.76.88,1.89,3.79,3.16,3.68,8.67-2.92,17.98-4.75,25.91-9.21,1.02-3.39,1.34-8.08,6.6-8.72,2.36-.29,4.74-1.29,6.12,2.28-1.82-.12-2.82-.25-4.41.58l20.45,11.18c.51.28,1.48.33,2.16.31.59-.02.8-.59.12-1.1l-1.43-1.08-13.1-7.02c-2.29-1.23-2.88-4.42-3.92-6.69,5.21-4.06,11.08-6.43,17.77-5.12l37.85-15.28,29.32-29.73c10.93-11.51,22.97-20.69,35.51-31.02-8.45,2.19-18.9,1.13-21.09-7.15l-13.06-49.39c-.52-1.98-.19-4.36,1.57-5.45,1.02-.15,1.58,1.17.8,2.01l12.04,45.32c-.81-13.83-5.27-26.09-7.92-39.28-1.07-5.29-1.54-10.74-5.57-14.56-.47,2.95.41,5.5-1.95,7.59-.63-2.72-.69-5.56-2.62-8.07l-31.57-1.36c-17.33-2.2-33.45-7.52-49.44-14.5-8.57-3.74-16.37-7.79-25.39-10.58-7.5-2.32-14.65-7.07-21.27-10.26-16.9,3.38-27.16,10.97-43.3,2.95-1.65-.82-2.2-2.28-2-3.76.39-2.81,20.39-8.56,30.38-11.69-11.44-14.97-11.48-30.56,1.61-44.16,20.74-21.57,58.67-34.52,88.49-41.58C592.93-.36,658-3.66,722.66,3.94c14.52,1.71,27.57,4.46,41.67,7.54,3.92.86,17.87-7.29,28.11-.05,2.36,1.67-.08,5.97-2.96,6.53-1.72-.25-2.85,1.44-.91,1.76,14.93,4.23,39.76,21.32,37.73,32.04-1.03,5.44-7.81,8.08-11.62,10.77-14.46-18.86-34.08-23.88-54.65-30.81-6.66-2.25-11.64-.83-18.06,1.52l-16.13,5.89c-3.93,1.44-8.66,1.4-11.54,4.22,2.93.94,1.44,3.08-.28,1.78-1.9-.98-3.64-.63-5.4-.15l-36.54,9.98c4.64,3.5.78,3.84-7.04.6-.94-.39-1.75.96-.47,1.56,1.15.46.53,1.58.1,1.42l-2.58-.9c-3.64-1.27-21.12.42-22.11,1.1-.82.56-1.36,2.3-.98,3.83,2.53,10.22,4.17,20.35,4.16,31-.02,11.88,5.1,9.93,9.01,18.07,2.29-.53,3.73-1.11,6.24-1,.99-.84,2.13.32,1.38.98-2.9-.08-4.36.29-6.63,1.06l2.99,8.91c1.08,3.22,4.55,5.28,7.96,3.9l26.29-10.62c.48-.19,1.9-.25,1.86-.86-.04-.57-1.1-1.5-2.31-1.84,1.14-1.77,3.87.18,5.16,0,6.84-2.5,13.17-6.21,19.89-7.26.63,2.06,1.12,3.65.7,4.65-1.41,3.31-31.65,18.03-43.1,24.18l31.9,23.14,22.05-2.11c7.43-.71,13.56-5.67,20.26-8.64l33.98-15.04c14.32-6.34,28.25-12.4,43.41-16.47,10.9-2.93,21.82-2.23,32.93-1.3l19.75,1.66c23.24,1.95,45.95,5.18,68.38,11.38,25.55,7.06,31.27,27.56,36.57,28.44l14.74,2.45,17.68,7.57,49.8-14.42,36.43-10.37-19.38-9.3c-1.47-.71-1.63-2.55-1.4-3.45.46-1.8,2.41-2.56,4.38-1.77l18.69,7.54c8.22,3.31,18.41,3.78,25.31-1.85,3.27-.32,7.09-.4,11.25-1.51l24.49-6.55c.84-.22,1.49-.92,1.96-1.53,1.43-1.87-2.57-.49-8.57-1.21,1.84-2.2,7.24.85,8.73-2.55.93-2.11.19-4.13-3.01-3.05-2.04.84-2.39-1.93-.11-1.35,1.73.25,3.05-.62,3.38-1.45.41-1.03-.5-2.3-1.91-2.8,1.81-1.34,2.05-3.14,1.99-5.68l-.45-19.31c-2.35-9.22-14.78-6.92-14.8-7.24l.13,2.5c.06,1.21-.15,2.13-.87,2.63-.46.32-1.68-.05-1.33-1.49.37-1.52.43-2.69.17-3.83l-17.34.15-34.77-3.24c-.5-.05-1.73.98-2.03,1.27-.4.38-1.21-1.21-2.05-1.34l-15.25-2.31-53.74-9.07c-9.26,5.91-16.44,13.45-21.77,23.1-4.78-1.09-10-3.19-11.84-7.99-4.28-11.15,8.74-19.78,4.01-20.39-2.23.15-8.08-2.56-7.04-4.98,3.4-7.92,13.85-5.35,19.91-5.72,14.29-7.78,27.74-16.46,43.69-20.99l40.49-11.5c32.68-6.84,65.25-11.27,98.7-11.28l36.17-.02c39.8-.02,101.29,8.13,136.92,24.02,12.61,5.62,24.36,12.44,32.96,22.87,20.83,25.24-8.93,48.45-8.83,48.74.27.77,2.29,1.02,2.99,1.19l26.64,6.44c1.01.24,1.48,1.62,1.22,2.29-1.02,2.62-13.23,8.01-18.99,8.45l-32.48-3.97-34.02,16.63c-17.76,13.27-34.97,24.17-57.92,27.11l-23.4,2.99c-4.39.56-9.66,5.65-12.25,9.28l-16.06,68.74c-1.79,7.68-15.18,8.33-26.8,4.3-3.05-1.05-4.46-2.37-3.96-6.04l5.74-41.97c.98-7.18-3.8-13.77-6.46-19.76l-29.31,8.9-55.18,18.83-77.52,26.18-8.76,8.51-29.43,14.77c-.19,12.51-.17,24.99-3.68,37.07-1.48,5.1-5.39,8.24-9.6,11.96,3.62,5.26,2.3,11.66,3.75,17.24,1.65,6.36,7.56,11.25,11.22,16.28l6.06,8.33,21.41-5.41c.37-.09,1.07-.11,1.6.57l-21.95,5.89,9.93,13.8,16.28-4.93,2.26-.22c.33-.03.81.8-.24,1.01-5.94,1.16-10.8,2.92-16.65,5.44l5.57,8.46.77,1.2,8.08,13.1,2.11-1,4.29-1.22c1.72-.68,1.86,1.64.03,1.06l-6.21,2.19,5.4,11.49c2.65,5.65,2.74,12.61,7.19,17.61.87-2.63.95-6.18,2.95-7.47,5.2-3.34,10.87-3.09,17.46-2.74.71-5.26,4.69-8.76,6.58-13.43,1.27-3.14,1.28-6.8,5.83-8.51,8.39-3.16,19.57-3.71,28.15-.07,4.3,1.82,7.29,2.41,12.67,1.88,1.2-1.07,3.5.63,1.26,1.26l-10.42-.09,5.5,11.17c7.77.45,13.91-3.79,20.01-7.71-.39-.46-.95-.7-1.23-.72-1.12-.08-.27-1.68.5-.54,6.9-.38,12.64-3.72,19.28-5.04l21.64-4.31,18.28-2.58,9.87-1.39c1.13-.16.72-1.08.32-1.02-.7.11-1.17-.12-1.91-.49l-1.8-.89c-.11-.12-.25-.24-.41-.3l-21.48-7.06c8.25-.04,15.12,4.01,22.32,6.05.14.05.31.22.51.29ZM526.27,38.86l20.8,17.9c2.1,1.81,4.91,5.38,8.1,4.95l19.68-2.66c2.28-2.37,3.64-7.9,8.53-7.52-1.23,1.61-.93,4.23.59,4.39,4.52-5.92,4.79-14.04,9.86-18.88,5.59-5.33,16.31-3.87,22.69-1.19,5.43,8.95,7.04,10.75,17.7,12.48,15.19-12.46,33.65-15.53,52.37-19.4l20.72-4.29c.71-.15,3.01.22,3.29-.45l.92-2.18c8.09-2.17,15.21,2.13,17.18-3.44.43.79,1.24,1.63,1.93,1.66,1.02.04,2.16-.8,3.16-1.04l23.94-5.91c-10.86-3.17-20.92-4.79-32.22-6.23-69.65-8.88-148.28-4.19-215.94,15.81-25.5,7.54-64.59,23.18-74.2,47.82-3.81,9.75-.14,20.67,6.53,28.12l15.37-5.42c-1.57-7.62-.45-15.37,4.66-21.11,14.13-15.85,34.35-24.96,54.65-32.68-5.09-5.99-10.62-14.02-7.96-15.07l2.13-.84,12.99,13.11c35.96-10.28,72.15-16.22,109.69-17.83,24.95-1.07,48.84-.22,73.74,1.06,1.12.06,2.04-.25,2.57.53.21.32.6,1.11.16,2.13l-26.65-1.3c-52.57-2.57-107.2,3.18-156.98,17.49ZM1329.93,35.04l17.07,7.73c17,7.7,40.43,26.57,32.14,42.62l-5.08,9.85c2.74,1.21,7.13,3.28,9.71,1.87,6.28-4.42,11.02-10.79,14.44-17.46,7.96-15.49-3.4-31.06-17.61-40.53-22.1-14.73-55.7-23.17-82.5-27.41-61.54-9.75-121.95-8.99-183.44.27-29.26,4.41-56.85,12.5-83.67,24.23-7.08,3.1-13.05,6.51-19.04,11.19l28.49,3.44c21.53-10.47,43.91-17.37,67.76-21.53-1.42-2.97-3.04-5.79-2.42-9.57,4.4,1.65,6.25,4.5,9.75,7.28,46.54-7.72,93.36-9.67,140.56-5.37l55.47,8.65c4.08.64,7.85,4.26,12.12,3.13,3.75-4.78,7.35-10.35,13.59-11.5.14,5.85-3.94,8.78-7.36,13.13ZM652.43,54.12c21.19-2.5,40.56-7.32,60.43-13.98l66.54-22.3c3.57-1.2,6.86-1.97,10.39-4.71-4.8-2.24-10.18-1.98-15.72-.71l-70.75,16.18-36.01,8.02c-10.83,2.41-31.88,10.28-29.97,16.18,1.53,4.71,9.59,1.97,15.1,1.32ZM821,54.08c.51-1.34-1.1-2.67-1.7-3.41l5.13.92c-2.64-8.08-7.94-14.52-14.99-18.29l-20.84-11.15c-3.06-1.63-6.44-2.86-9.86-.83-.62.36.03,2.39.63,3.26-3.86-1.25-6.83-1.46-10.4-.25l-10.82,3.67,26.26,9.38c12.48,4.46,23.2,11.98,31.33,21.99,1.72-1.87,4.4-2.98,5.28-5.28ZM1220.7,69.31c-.28.67,2.15.99,2.03-.09-.04-.38-.22-.9,0-2.1l8,4.84c3.52,2.13,8.54-.4,12.54-.33l13.7.25,21.44,2.76-3.1-4.21c2.36.21,3.36,1.85,4.43,4.64l23.22-21.77,7.17-6.28c-1.52-2.1-2.91-3.57-3.66-5.38,2.56.29,4.99,2.47,6.54,2.06,3.16-2.29,5.52-5.07,7.59-7.88-30.42-8.76-60.42-11.97-91.32-13.66l-40.08.02c-23.78,1.21-46.98,2.49-70.18,6.92l26.01,22.65c2.07-.26,3.21-.28,5.33.25-.19,2.32,1.68,6.85,4.4,6.24,2.88-.65,5.3-2.73,8.62-1.21-2.8.94-5.11,1.43-8.03,3.41l6.98,6.15c4.8-2.2,9.67-3.5,14.95-3.94,8.61-.72,5.6-9.93,12.49-12.84l-2.56-3.63c7.34,5.33,16.85-.6,26.82,5.52l2.22,6.76c3.76,2.49,6.45,6.06,4.48,10.84ZM1158.97,67.79c-3.09-5.96-8.39-8.35-12.86-12.18l-36.61-30.38c1.86,4.55,5.62,7,8.95,10.05l15.14,13.89c7.9,7.25,15.61,14.44,25.38,18.61ZM1292.56,72.31l21.26-22.17c7.27-7.58,14.47-14.77,19.29-23.67-4.65,1.63-5.39,6.14-8.15,8.83l-29.84,29.12-12.82,11.71c4.18,2.09,6.99-.41,10.25-3.81ZM1148.41,65.22l-16.51-14.29-5.5-4.62-16.44-15.54-30.86,7.64c-11.4,2.82-22.11,7.02-32.22,12.73l74.21,9.54,27.33,4.54ZM548.85,62.23c-9.15-8.45-16.94-15.62-25.98-22.31l-4.86-6.19c-.65-.83-1.24-1.1-1.75-.74-.26.18-.9.74-.88,1.04s.57,1,.97,1.39l24.64,24.33c2.48,2.45,5.35,4.09,7.86,2.47ZM614.15,37.97c-6.43-2.42-12-2.6-17.52.7,6.41,1.41,12.26,1.72,17.52-.7ZM1306.19,81.02l26.12,5.52,38.05,8.06c8.88-8.37,9.54-21.22,1.32-30.7-5.68-6.55-12.49-12.63-20.56-16.2l-22.58-10.02-9.07,10.09-12.13,11.89-16.97,17.48c2.73.83,5.53,2.58,8.28.93,1.36,2.15,4.23,2.25,7.53,2.95ZM613.77,47.52c1.16-1.2,3.15-1.68,3.87-3.44.62-1.53-.24-3.32-1.43-4.15-.68-.47-1.77,1.1-3,1.64-7.84,3.44-17.03-.68-19.55.82-.6.35-1.83,2.46-1.17,2.85,8.34,4.94,14.29,2.02,20.17,3.42l1.1-1.14ZM526.99,67.78l7.55-6.36s.27.26.6.63c-1.17,1.39-2.54,2.27-3.4,4.67l10.78-2.7-23.6-22.05c-19.68,6.38-38.3,15.7-53.25,29.76-5.55,5.22-7.83,12.97-5.44,20.26l29.6-10.65c5.04-1.81,9.76-3.43,14.85-5.31l22.31-8.24ZM612.79,49.93c-14.26,3.6-24.41-5.49-22.71,1.96,8.71,4.04,18.43,3.03,27.53.07,2.91-.95,5.46-2.45,5.12-5.94-3.66,1.86-6.31,3.72-9.01,2.64-.29.05-1.02.25-.94,1.27ZM1164.71,73.26c-4.1-4.24-8.31-2.77-12.19-4.09l-30.27-4.81-116.78-15c-5.6-.72-10.55-1.1-15.45,2.72l29.21,6.5,69.96,10.98c25.45,4,50.44,5.14,75.53,3.7ZM633.58,53.59c1.17-.58.74-3.08.09-3.06l-2.47.07c-3.26.09-6.59.15-6.94,3.89,3.07-.11,6.55.46,9.32-.9ZM1208.12,54.53c-.4-3-2.25-3.1-4.85-3.02-4.92.15-9.67-.86-13.32,2.9l18.17.12ZM618.18,58.34c2.77,2.97,2.02,6.13,1.99,9.48.5.7,2.12.09,2.55-.48.39-.52.69-1.84.59-2.71l-1.3-11.26-18.28,4.58,1.55,12.75,14.24-1.6c-1.13-4.23-1.93-6.84-1.34-10.76ZM1193.71,57.54c-2.31.14-3.89-1.56-5.03-2.39-1.93,1.76-2.39,3.94-1.9,5.32.36,1.02,1.59,3.04,3.19,3.37,12.48,2.54,26.36-.66,22.53-6.95-.71-1.16-1.32-2.6-2.98-3.22l-4.33,7.95c-3.74-.21-6.96.28-10.17-.62l10.24-1.79c.86-.15.34-2.37-.62-2.31l-10.93.65ZM1000.62,82.76c4.7-8.55,11.41-14.63,18.98-20.85l-20.17-4.12c-4.97,4.73-8.17,11.5-6.73,18.46,1.29,2.73,4.96,4.48,7.92,6.5ZM430.7,115.74l69.14-17.55,67.95-16.01c9.73-2.29,14.43-9.3,23.03-11.16l1.03-9.09-4.92.43,3.3-2.53c-4.28-.8-7.77-.72-11.96-.06,1.38,2.56,3.83,3.22,7.1,2.83.47,2.38.55,4.59-.17,6.75-.14.43-1.93.51-2.36.36-.34-.11-.65-.49-.15-1.1l1.62-2.01c-4.57-3.78-10.87-4.15-17.16-3.37-14.17,1.76-28.02,4.07-41.45,8.84l-51.01,18.1-56.92,20.55c4.88,1.92,8.42,2.91,12.92,5.03ZM597.47,71.24c2.15-.21,3.67-.39,4.6-.91.44-3.33.4-6.8-.41-10.38-2.3-.14-4.2.84-5.57,2.24,1.9,3.25,1.3,6.13,1.38,9.05ZM630.42,64.28c3.24-1.05,6.21-1.47,7.06-4.54-4.44-.26-8.46.44-11.51,2.48-.07,1.02,1.13,3.14,1.74,2.94l2.71-.88ZM1216.72,66.58c1.22-.9,1.24-1.73,1.03-2.21-.25-.56-1.58-1.31-2.51-.82-10.44,5.58-22.21,5.2-33.13-.09,1.38,5.76,6.72,7.1,12.09,7.13,7.85.05,15.43.33,22.53-4.02ZM1174.05,67.75c2.4-.37,3.89-.6,5.21-1.75-1.86-.85-3.86-.94-5.35-.38-.99.37-1.34,2.2-1.57,3.9-2.35-1.02-4.31-1.42-6.16-.54,3.46,4.48,13.39,3.69,13.87,2.96,2.18-3.29-4.12-1.45-5.99-4.19ZM628.35,112.69c-2.74-.39-4.94.79-7.43-1.08l12.73-3.37c-.43,2.26.4,2.85,2.12,1.81.08-2.53,2.71-4.61,3.89-6.09,1.42-8.52.2-16.64-.48-25.58-4.04,3.14-8.04,4.9-12.98,6.29l-.29,13.94c-2.38-3.93-1.4-7.9-1.97-11.72-.13-.85-2.41-.45-2.26.7.08.64.09,1.9-1.07,3.14-.56-2.03-.33-3.59-2.06-5.51-1.49,4.04-3.7,2.29-6.14,2.32-12.02.14-23.28.5-34.42-3.62.79-1.89,2.65-1.75,4.21-1.29,12.92,3.88,26.6,4.22,39.52.53,6.19-1.77,12.2-2.57,16.7-7.52-6.54.22-12.07,7.68-18.97,5.02l9.37-3.49c3.76-1.4,7.31-3.48,8.53-8.06-4.36,1.48-7.3,4.48-11.5,3.98l10.54-6.07c-.06-.04-.51-.49-.7-.77l-11.7,3.79c.93,1.68,1.12,2.71.95,3.74-.23,1.44-9.23,6.79-15.35,1.4,5.4-1.05,9.64-1.62,13.93-4.49l-10.42,1.71c-10.07,1.65-20.09,1.98-29.65,5.72,11.12,4.59,21.94,4.15,32.69,2.74,1.09-.14,3.05.45,3.62,2.13-9.66.58-18.89,2.3-28.34.26-5.21-1.13-10.27-3.46-15.66-.74,3.45,11.61-.35,24.29,5.84,26.64,8.48,3.22,17.36,4.67,26.42,3.92,2-.17,3.35-.24,4.73,1.18,2.16-2.48,5.7-3.57,8.17-.77-1.39,1.32-2.89,1.08-4.04,1.58,2.34.59,3.53.75,4.54,2.29l-8.55.48c7.6,6.88,21.13,5.61,31.45,2.24-10.43-10.92-20.33-1.49-22.24-3.98-.28-.36-.16-2.33.41-2.46,1.9-.29,4.12.72,5.85-.94ZM1184.18,85.53l.79-13.93c-.74-.17-1.66-.19-2.66.05l-.06,11.99c0,.79.99,1.75,1.93,1.88ZM1204.67,74.48l19.44-.11c1.25,0,1.64-.83,1.8-1.51.27-1.1-.49-2.01-1.18-1.62l-1.86,1.03-12.32.92c-1.57.12-4.48-2.58-5.89,1.3ZM1202.63,73.81l-10.26-.08c-2.58,3.53-2.2,7.41-3.51,12.18-1.54-4.2-.76-8.35,1.79-12.61-1.48-.53-2.63-.72-4.41-.71-.26,5.1-.18,10.08.71,14.83l18.21.72c-1.82-1.62-3.02-3.75-2.89-6.64l.35-7.71ZM1179.23,82.97l.95-8.15-13.86-.12c-.31,2.35.4,7.3,2.78,7.56l9.61,1.03c.19-.15.38-.24.52-.32ZM1222.54,87.99c9.97,6.95,22.57,9.78,34.09,9.53.98-3.08,3.52-5.85,6.36-4.61l-.32,3.08-2.95,1.37c1.44,2.62,3.99,1.44,6.17,1.67l102,10.63c9.19.96,17.92,4.14,27.03,3.04l12.71-5.91-86.14-19.43-36.53-7.56-28.19-4.63-28.39,1.58c2.44.63,1.81,2.24.15,1.97-2.26-1.41-3.8-.52-5.39,1.2-1.1-.26-.75-1.75.11-1.85.33-.04,1.32-.65,1.01-1.64l-19.07,1.31c1.42,3.43,2.46,6.11,1.88,10.37,2.8.4,5.52.4,8.19.12l-.07-1.47c-2.27-.5-4.73.64-7.26-.86,3.62-2.62,8.73.91,10.99-3.75.33,3.2,1.2,4.15,3.62,5.84ZM1179.81,83.41l-.58.62c-2.09,2.33-4.53,2.3-8.88,2.77,13.43,11.41,34.22,8.39,51.96,4.72-1.89-3.2-4.19-.83-6.09-.76l-18,.64c-6.52.23-12.8-.62-18.44-3.56,1.05-2.01,1.1-3.62.02-4.43ZM482.9,119.34c-5.34-2.7-10.56-5.03-13.76-10.1,9.09,4.9,17.51,8.96,27.02,12.32l23.56,8.32c15.91,4.22,31.99,4.73,48.71,5.99l-1.59-14c-.11-.94-2.26-1.53-2.78-1.82,1.47-.58,2.31-.73,2.86-1.27.8-.79-4.29-12.55,7.99-15.91.12-6.5-1.15-12.47-2.99-18.07l-20.95,4.56-20.43,4.42c-.88.19-1.79,1.04-1.72,1.64l.32,2.6c-5.91-2.93-11.18-1.02-17.09.35l-17.81,4.11c-9.45,2.18-18.46,4.32-27.79,7.39-2.74.9-6.15.16-8.25,2.3,14.88,7.44,29.85,12.82,46.2,15.52l-21.48-8.33ZM1185.66,98.56c.35-1.94.24-2.75-.05-3.03.45.43-7.62-.28-16.43-5.26,1.48,3.31,4.86,4.24,7.94,5.31l8.54,2.98ZM1216.08,98.45c-1.61-2.82-4.42-1.86-6.78-1.85l-20.68.12c2.55,4.8,12.93-.3,20.15,4.03-10.2,1.98-19.62,1.1-29.2-1.28-.53,2.04-1.34,3.18-3.27,2.95.65-1.15.82-2.18.52-2.96-.24-.63-1.13-1.15-1.87-1.58l-5.97-3.47.03,26.21c.01,9.12,41.61,11.95,62.49,4.28,3.81-1.4,5.6-4.34,5.2-8.35l-1.92-19.41c-7.04-1.48-15.41,4.8-24.53,3.53.98-2.65,3.41-2.53,5.84-2.22ZM1247.3,101.04c-2.41-2.2-5.09-1.82-7.81-1.13l-1.13,5.35c3.78,2.07,4.05-2.82,8.94-4.22ZM1238.92,112.8l16.63-10.73c-3.65-1.88-6.41-.1-9.56,2.26s-7.67,4.17-7.06,8.47ZM1238.36,117.06c2.95,2.52,5.94,4.74,9.43,5.44l19.98-20.98c-5.66-.89-10.24,1.93-14.32,4.3.08,1.08.82,2.99.07,3.48l-3.3,2.18.71-3.25c-4.78,2.2-9.06,4.35-12.57,8.83ZM1299.77,134.49c21.63-5.27,41.86-12.15,60.67-22.52l-8.52-1.07c-14.94,9.5-30.93,15.57-48.08,20.25-2.48.68-4.98,3.35-7.32.18,14.46-4.26,27.82-9.15,41.17-15.31,3.17-1.47,5.9-3.09,9.03-5.99l-55.49-6.22-11.88-1.17c-7.45-2.28-12.18,1.56-15.7,7.42l-6.65,7.46c2.09-.09,3.44-.35,4.63.88-6.05-.17-10.62,3.17-12,8.12,2.57,3.78.45,9.58,1.75,15.68l23.57-4.48c1.39-.26,4.82,1.86,5.94,1.08,3.02-2.13,4.56-4.8,8.24-4.98l-1.16,2.8c4.4.35,7.44-1.05,11.8-2.11ZM610.47,128.59c2.42,1.54,2.07,3.58,1.65,6.26l8.93.41c.03-2.65,1.01-6.55-.51-9.08-4.5-7.53-14.01-7.99-20.89-3.22-4.12,2.86-8.7,3.46-12.89.98,3.27-2.5,6.26-.87,9.77-1.87-10.29-3.64-19.08-3.71-21.62-15.64-2.05-.22-6.31,3.38-5.08,5.71,3.2,6.02,10.59,7.7,16.82,10.1-1.3,2.56-4.19,2.28-6.18,1.15l-10.22-5.77c-.22,6.4.23,11.87,1.84,18.33l17.35.02,19.73-.8c-1.38-1.5-2.18-2.71-1.46-3.95,1.15,1.13,3.07,1.03,3.02.44l-.26-3.06ZM1413.08,109.17c-2.41-3.49-10.02.26-15.16,4.42,5.9-.21,9.84-3.13,15.16-4.42ZM645.22,109.57c-3.36.03-5.39.71-6.87,2.27.09,1.25,2.72,2.1,4.07,1.38,1.17-.63,2.66-1.77,2.81-3.65ZM689.55,122.4c7.38-4.32,14.88-7.02,20.85-13.25l-45.54,19.26c1.17,1.7,4.3,4.02,6.12,3.13l18.57-9.14ZM426.43,117.08c-1.98-3.51-4.61-2.97-6.79-3.84-2.35-1.68-4.77-1.99-7.44-.16,4.56,2.02,9.26,3.48,14.24,4ZM580.3,111.72c7.71,7.8,18.61,7.7,28.18,5.29-8.4-2.99-17.17.1-28.18-5.29ZM651.26,118.8c.09-3.06-.83-4.81-2.38-7.66-1.81.6-3.35,1.62-4.65,2.97,2.21,2.1,3.14,3.46,7.04,4.7ZM936.41,241.24l9.76-9.1-6.27-41.45,33.59-31.86c.94-.89,2.82-2.95,2.76-4.29-4.34-6.72-9.35-12.83-15.72-17.76-3.14,2.02-3.7,4.59-4.54,7.84l-2.63-3.35-7.17,4.54,5.22,8.1c-.25.15-.57.46-.72.66l-6.15-8.21-16.23,11.32-43.02,29.29c4.22-5.65,10.07-8.85,15.73-12.69l39.93-27.02,18.73-11.44c-10.06-6.19-20.48-8-31.29-10.48-20.89-4.8-41.55-6.77-62.96-8.12-4.06-.26-8-2.07-11.32,1.16,13.25.22,25.79,1.63,38.3,5.07,3.25.9,4.96,5.72,5.45,8.19-3.81,3.64-7.79,5.17-12.01,7.59l-46.91,26.94-26.42,15.63c-5.68,3.36-12.98,1.48-19.2.64l-49.31-6.61c-2.6-.35-3.46-2.97-3.18-4.81.19-1.25.45-3.89,2.1-4.96,15.23-9.97,30.68-18.58,47.15-26.67l43.51-21.38,17.62-.67c.93-.04,2.01-.37,1.92-2.25-5.78,3.52-15.62-1.72-24.26,2.12l-39.49,17.52c-19.77,8.77-38.47,18.04-57.38,28.53l-37.87,21.01,18.21,1.26c33.4,1.08,65.87,5.95,98.65,12.45,37.34-27.7,76.31-50.69,117-71.53-.86,2.53-2.83,3.58-5.22,4.83-38.08,19.94-74.3,42.06-109.85,67.51,5.33,2.57,11.51,3.31,15.87,7.16,16.01,14.14,32.94,20.83,44.49,36.07l14.03-11.46c13.24-10.83,26.28-21.05,40.86-30.33-4.47,7.77-14.14,6.71-12.1,16.55-1.16-1.18-1.21-2.49-1.67-5.04-3.19,1.52-5.22,3.91-6.24,7.96-.41-.77-1.6-2.07-2.09-1.68l-15.38,12.1-9.69,7.14c1.37,2.7,2.07,5.17-.29,7.49-.6-1.75-.36-3.33-2.01-5.49-1.28,1.1-3.77,3.23-4.51,5.45l2.76,50.71c.15,2.83-1.74,6.01-.28,8.75,1.05,1.96,3.47,3.27,5.62,4.35l61.8-54.09.5-18.49-21.47,18.65c-.04,2,.18,3.57-.43,4.99-.7-1.12-1.4-2.46-2.08-2.51-.49-.04-1.46,1.43-2.74.05l18.54-15.9ZM812.26,176.88c-4,2.46-15.6,2.14-16.59.87-.25-.32-.53-.99.09-1.16l2.01-.56,11.28-.54,30.23-17.92c15.33-9.09,30.06-17.97,46.03-25.86,2.69-1.33,5.35-2.58,7.34-5.66l-29.91-4.44c-.79,1.7-1.83,2.85-2.93,3.16-1.51.42-2.23-2.76-3.05-3.26-6.56-1.72-16.85-4.26-23.6-.89l-39.32,19.6c-17.08,8.51-33.15,17.54-49.7,27.63.53.33,1.87,1.24,1.48,1.67l-2.55,2.78c5.27,2.72,11.48,2.92,17.75,3.67l38.28,4.59c7.43.89,13.09-1.14,19.37-4.84l67.25-39.6c2.88-1.69,6.44-2.31,7.42-5.92-28.09,14.1-53.99,30.18-80.88,46.69ZM677.86,167.24l24.78-8.4-33.33-23.41c-6.46-4.54-13.35-10.18-20.58-12.93l-24.56,2.02,53.06,40c5.02-2.33,9.55-5.81,15.21-4.99-5.06,2.98-11,2.04-14.58,7.72ZM1246.94,127.4c.71-2.37-4.29-4.69-6.56-4.52-.35,10.53-14.97,13.64-26.28,15.12,10.67,2.1,30.65-3.25,32.84-10.6ZM547.85,292.44c9.45,1.98,16.78,2.23,24.68-.77,28.84-35.17,61.24-66.49,97.71-94.41l-2.72-3.18c3.87-1.04,7.15-1.89,10.51-3.79l28.69-16.26,51.58-27.35,48.9-23.29c-49.17,19.42-99.17,43.45-145.28,70.77,2.09.83,3.76.68,4.54,2.88-4.56.3-9.41-.21-13.63,2.11-14.93,8.21-27.18,19.03-40.64,29.34-14.26,10.91-26.44,23.23-38.9,36.07l-15.16,15.62,4.05.54c-.71,2.78-4.06,1.77-5.65,2.2-3.26,2.76-6.5,5.94-8.67,9.52ZM1205.04,134.65c.91.15,1.97,2.06,2.53,1.79l3.01-1.44c9.86-.52,20.36-1.22,26.85-9.62-8.11,3.66-15.59,5.96-24.23,6.45l-19.09,1.07,10.94,1.75ZM667.65,186.56c3.18-1.26,5.41-2.38,7.66-4.19l.7-15.33c.04-.78-1.5-1.69-1.9-2.02-.52-.44-1.25.06-1.41.6-.3,1.04-.21,1.74-1.14,3.25l-.88-6.6-47.26-35.62c-.33,3.29-.45,6.24.09,9.53,3.01,1.28,5.98,1.56,7.93,4.43l-7.42-2.51c-.21,5.08-.31,9.31.95,13.64l21.31,17.74c7.04,5.86,13.41,11.96,21.36,17.09ZM1133.23,142.37c9.15,1.2,17.33-1.25,25.23-4.22-2.96-2.32-5.41-3.14-8.6-1.32-1.14-.75-1.07-4.09.17-4.37,4.3,1.27,8.77,4.93,13.14,4.05l19.8-3.99-17.92-5.73-16.17,3.13c-.93.18-2.32.59-2.21,1.05l.56,2.42c-5.4-1.26-10.21-.4-15.26.95l-14.05,3.75c4.19,1.48,8.14,2.94,12.08,2.12,2.42-.5,4.85-3.12,7.36-1.1-1.89,1.03-3.28,1.76-4.14,3.26ZM1215.29,152.95c-1.75,1.42-5.01-.14-7.43,1.27-.01.9.41,2.43.71,3.41,22.67-.22,45.38-1,68.01-4.7,18.44-3.01,35.18-10,48.92-22.38l-40.53,9.76-33.41,5.63-39.37,2.65c-1.48.1-2.97-.07-3.52.83-.33.54-.69,2.43-.16,3.03,2.27.27,4.64-.4,6.78.49ZM615.13,145.66c.22-3.63.1-5.46-.63-7.45-21.09.15-41.21,1.44-61.8-.14-16.95-1.3-32.7-3.54-49.66-6.69l18.04,7.36c24.94,8.03,50.89,8.33,77.02,7.48l17.02-.56ZM1108.31,138.22c-6.45-3.19-12.39-5.19-19.37-6.5,5.86,4.29,12.53,6.31,19.37,6.5ZM1231.04,144.39l16.03-1.88c.62-3.85.92-6.88.56-10.48-7.61,6.75-16.27,5.97-17.29,9.07-.32.95-.32,3.41.7,3.29ZM1227.75,141.27c-6.37-.09-12.78,2-18.51.72-2.5-.88-4.17-3.85-8.34-3.58l-14.87-3.47-22.64,4.11,1.21,7.31c21.53.45,42.93-.26,64.22-2.22.74-.07,1.07-2.84-1.06-2.87ZM622.01,148.44c-.27-4.46.3-7.05-.61-10.06-.37-.76-2.92-.83-3.73-.58s-.87,7.53.59,9.13c.69.76,2.45,1.66,3.75,1.51ZM1161.87,145.65c.27-2.2.17-3.57-.41-5.98l-13.51,4.37c4.1,2.02,8.23,1.57,13.92,1.61ZM1133.84,144.75c-5.29-2.39-11.61-1.58-16.29-2.35-1.14-.19-2.03-3.53-4.27-1.64.3.49.69,1.63.3,1.89-.42.28-2.31.43-2.7,0-.32-.35.04-.91-.31-2.32l-91.79,26.63c3.96,4,7.17,6.36,11.69,8.86l69.3-20.72,34.07-10.37ZM1113.13,186.03l49.81-15.9-.41-21.31c-4.21-1.96-8.43-.66-12.12-1.48-6.68-1.48-12.05-1-18.47.86l-36.6,10.58c-.17,1.92.31,3.68-.82,5.01.03-1.71-.25-4.15-1.52-4.07-.75.05-2.55.68-3.5,1.29-.2,2.79.54,5.52-.8,8.62-.95-2.59-.35-4.99-.55-8.48l-14.08,4.32-41.53,12.36c1.73,6.34,3.39,13.91.45,19.49-2.22,4.21-7.97,5.97-11.77,8.14l-24.25,13.84c-15.96,9.11-32.99,1.58-48.3,11.2l30.26-1.77c.66-.04.36,2.63-.32,2.67l-2.37.13c-9.81.54-19.21-.2-28.57,2.14l-.87,19.23c5.68-2.68,10.76-2.45,16.15-2.75l22.68-1.24c8.26-1.46,15.33-5.82,22.95-8.95,6.22-2.56,10.99-6.52,15.93-11.15l6.24-5.84c2.68-2.51,2.28-8.51.89-11.79-10.25,2.35-17.3,10.52-27.04,11.7l-.92,7.08-1.69-5.73-11.15,5.01c-3.53,1.59-7.49,1.76-11.01-.75,13.03-1.51,32.09-9.52,41.9-16.55,3.06-2.2,9.33-4.36,12.21-1.18s.97,8.73.37,12.59l39.18-13.4c2.75-.94,4.77-1.55,5.12-4.63.02-.17.09-.34.19-.47.63-2.35-.02-4.9-2.24-6.27-1.37,1.84-1.2,3.43-1.87,5.2l-1.44-3.73-17.68,5.9-18.11,5.74-.99-3.5c3.07,2.18,5.19.82,8.17-.15l40.79-13.31,27.16-8.36c.16-.21.38-.3.52-.34ZM620.63,150.42c-.32,1.82-.73,3.19-1.87,3.45-.66.15-2.52-.11-2.67-1.48,1.08-.86,2.77-1.26,3.37-2.77-7.86-1.8-15.16-.9-22.38.28l10.8,2.04c5.33,1.01,8.9,5.28,13.81,9.05,1.09-3.34.86-7.31-1.06-10.57ZM1164.58,149.46l.86,19.92c13.33-4.48,26.02-6.81,39.64-8.33.25-4.18.27-8.31-.61-12.64l-26.36.96c-.12,4.31.71,8-.4,12.26l-.81-12.11-12.33-.06ZM603.03,169.7c.37-1.58,2.78-2.97.56-5.47-.2.88-.13,1.99-1.61,2.99l-2.33-10.29c-.62-2.76-4.58-4.34-7.56-4.54l11.99,53.27c.58,2.19,1.15,4.15,3.28,5.32l-2.81-18.75c-1.11-7.43-3.37-14.61-1.51-22.53ZM655.12,180.26c-.04,2.44,1.94,5.03-.45,6.99-.85-4.69-1.04-9.43-4.68-12.46l-25.41-21.19c-.55,3.02-1.02,8.07,1.87,10.72l30.48,27.91,8.79-4.5c-3.97-3.03-6.07-5.94-10.6-7.48ZM611.64,160.52c1.88,3.81,4.05,6.01,7.22,8.97,1.18-3.1.53-6.74-2.39-9.23-2.57-2.19-5.56-3.64-9.01-3.66-.41,5.95-.64,11.35.37,16.94l10.07-1.75c-4.08-3.7-6.62-6.72-6.26-11.28ZM1010.04,179.39c4.2-1.72,7.74-4.28,10.69-7.67l-19.98-9.47-5.23-1.79-16.23-2.9-34.73,32.19c7.91,1,15.25.73,23.09.28l19.05-1.09,23.34-9.55ZM688.59,174.77l32.93-16.08c-6.14-1.51-11.03,1.16-16.39,2.76l-23.16,6.89c1.95,2.6,3.87,4.77,6.62,6.43ZM1164.59,178.65l26.83-7.83,23.37-1.77c10.38-.79,20.81-2.57,28.92-9.27l-17.69,1.65c-3.01.28-4.29.85-6.59-1-1.49,1.55-3.78,1.94-6.2,1.95-16.69.03-32.49,4.21-48.12,8.77l-.52,7.5ZM627.46,213.51c8.7-7.63,17.39-12.98,27.28-19.21l-32.19-28.93c-1.61,3.8-1.51,7.41-1.33,11.23l6.24,36.91ZM1221.13,231.16l7.72-31.99,7.48-31.55c-4.45.29-5.56,3.08-6.29,6.84l-11,56.21c-.58,1.91,1.61,2.49,2.09.49ZM685.11,177.04c-2.41-3.27-3.38-4.81-5.8-6.64l-.07,10.3,5.87-3.66ZM1209.44,235.47l5.99-35.8c-3.41-.18-6.2.8-9.11-1.23l11.06-1.79-6.09,39.98c4.28-.6,4.44-3.28,4.97-6.1l11.17-59.84c-1.67-.56-5.14.03-5.71,1.27l-4.8,22.95c-5.16,1.45-9.49.79-15.17.67l3.82,3.08-5.29-.63-4.28,34.3c4.56,1.58,8.6,2.98,13.44,3.15ZM1113.45,187.15c-2.07,2.09-7.15.71-10.68,6.49l-.87-3.03-5.62,2.24-.02,9.2,13.64-5.62c.48-.34.26-3.02.78-3.24,1.01-.42,1.33,1.05,2.15,3.23l48.22-17.1c2.04-1.02,1.91-6.21.55-7.31l-25.81,8.16c-.81.26-2.65.45-2.97,1.15-.21.45.26,1.15.12,2.65-3.29-3.18-11.14.64-11.28,1.43-.2,1.08.17,2.29-.91,3.47l-1.46-2.87c-.37-.73-1.37-.01-1.48.65-.08.52-.44,1.07-1.09,2.03-.39-1.22-1.57-1.99-2.87-1.91l-.39.38ZM1218.37,172.69c-2.02-.32-2.98-.26-4.92.48l1.76,15.14c2.27-5.48,2.53-10.33,3.17-15.62ZM1212.61,193.36l-1.76-19.14-3.17,1.87c-.51.3-1.89-1.09-2.7-1.17l-9.08-.94,6.48,18.83c2.14-.79,3.25-2.33,6.06-2.28-.42,1.49-1.66,2.04-2.65,2.57,2.61.89,4.44,1.04,6.83.26ZM610.26,212.46c4.65-2.33,8.31-3.52,13.29-4.14l-5.23-33.82-7,1.37c-2.97.58-6,.61-8.04,2.62,5.83.74,9.54.51,13.43,3.03-4.85-.18-8.1-1.81-12.62-.79l6.16,31.72ZM994.3,217.62l35.66-20.59c3.66-4.33,2.73-14.24-.45-18.36-2.01-2.6-4.91-2.77-7.29-4.35-7.64,6.31-16.18,10.35-25.39,13.83-5.62,2.52-11.29,4.26-17.62,4.29l-36.91.16,5.03,35.46c18.66-9.64,34.73-3.36,46.98-10.43ZM828.5,299.49l21.2-13.62c1.97-1.27,4.64.55,6.33,1.87l18.07,14.13-3.4-57.98c-3.95-7.79-12.4-13.43-19.33-18.32l-15.38-10.85c-2.55-1.8-5.05-.7-7.53,1.09.06-2.26,3.01-2.85,3.49-3.95.47-1.45-.9-1.95-1.43-2.09-.62-.17-1.54.17-2.33.73l-23.07,16.21c6.69-7.63,15.38-11.74,23.68-18.43-7.48-4.7-15.59-7.03-24.49-8.91-35.56-7.54-71.3-10.9-107.58-12.38-6.29-.26-10.64.58-15.79,4.46-37.76,28.43-72.32,60.2-103.37,97.23,5.19,1.82,10.27.2,15.81.74,39.62,3.85,78.53,8.3,117.44,16.57,8.04,3.15,15.02,8.3,23.84,10.29l28.38,6.38c4.51,1.01,8.04,3.75,8.64,8.55l4.54,36.27-1.47,15.28,32.04-21.63c5.44-3.67,5.22-10.71,5.51-16.58.59-12.14,2.4-23.81,5.67-35.35,1.23-4.36,6.83-7.32,10.55-9.7ZM1079.22,206.03c-.61.53.02,1.62.77,1.38l14.49-4.73.75-9.12-8.46,2.62-.55,7.87c-.03.43-.42.83-.63.89-.73-2.35-.32-4.48-.34-7.65-2.2.25-3.45.9-4.91,1.77,1.64,1,2.08,2.5,1.46,3.41l-2.06,3.05c-.1.15-.28.39-.51.51ZM624.25,212.01c-5.95-1.41-10.44-.12-12.39,4.51,5.07-.6,9.3-1.91,12.39-4.51ZM287.54,247.48c7.07-.28,13.25,1.18,18.64-1.82.97-.54-.57-3.05-1.55-2.27-.52.41-2.35.55-3.69-.47,1.14-.39,3.76-.42,4.68-1.99,1.39-2.38,1.51-5.48,1.53-8.15-12.37-.81-23.55.17-36.06.68-65.96,2.66-142.82,18.69-200.97,49.67l24.56,4.13c4.67.78,9.14,2.61,13.82.48,55.31-25.17,117.74-37.82,179.07-40.27ZM1207.72,241.72c.35-2.23-.57-3.69-1.69-3.98l-10.54-2.79c-.89.63-.44,2.85,1.05,3.31l11.18,3.46ZM1220.13,236.99c-4.74-.76-8,.43-10.41,4.18,3.96.13,7.91-1.56,10.41-4.18ZM937.01,312.76l-2.96,1.84c.35-3.19,1.69-5.15,3.9-7.03.29,4,1.92,6.95,4.99,8.94l.21-24.99-.04-17.72c6.49-5.47,13.13-9.83,21.66-13.18,2.63,13.82,1.23,27.03.73,40.91-5.21,4.45-9.49,9.72-15.45,12.79-5.98,3.09-10.8,6.69-15.94,11.16l-15.62,13.57c1.15,1.4,2.73,2.61,4.92,3.48l32.03-26.73,24.05-20.96c10.05-8.76,7.7-28.39,9.21-43.24l-22.29,1.01.66,2.51c.12.45-1.28,1.34-1.81.44-.62-1.05-.67-2.19-1.1-2.59s-1.94-.7-2.98-.49l-13.26,2.7-21.71,18.36-20.82,18.16c-2.09,1.83-3.34,3.66-2.73,6.98-1.8-.38-1.76-1.63-2.2-1.92-.95-.61-1.34.44-1.96.99l-13.36,11.85,17.38,13.41c1.74,3.09,1.77,7.17,5.78,9.68l7.89,4.95c7.24-3.69,8.73-9.64,8.47-9.68l2.32.37c4.01-2.27,7.08-5.43,10.39-8.72,1.74-1.73,1.29-5.27-.37-6.85ZM946.03,314.1l7.95-6.05c3.22-1.96,8.58-5.38,8.65-9.8l.54-34.72-17.64,12.29.07,24.56c.01,4.58-1.52,9.18.43,13.72ZM1079.75,518.38c-33.74,1.51-65.38.3-98.12-3.32-35.56-3.93-69.38-13.03-101.67-28.2-16.5-7.75-29.58-19.2-40.81-33.47l-25.22,2.49c13.53,25.32,42.79,40.87,68.3,50.64,59.9,22.96,131.49,28.89,195.31,25.55l68.24-6.59,1.18,3.51,5.61-2.15c-1.99-.23-3.77.44-4.82-2.13,8.79.26,16.57-1.99,25.27-3.52,31.25-5.48,60.59-14.32,90.22-25.6s58.25-26.77,82.07-48.93c23.68-22.03,38.1-54.09,24.04-84.35-6.27-13.49-15.89-24.25-27.85-33.08-13.25-9.78-27.11-17.37-42.66-23.43-35.38-13.79-72.31-21.88-110.1-24.39-2.56,5.47-3.69,10.46-3.68,16.16,42.93,4.41,83.55,14.64,120.99,35.45l7.08-7.36c1.97.62,2.03,3.75.63,5.51-.29.58-.4,2.69-1.64,1.88l-2.29-1.49-14.4,13.17-18.05,15.5c2.34-.01,6.55.38,8.26-1.28l6.12-5.94c7.2-5.22,11.99-12.35,18.17-18.9l21.3,18.69,15.94-1.85,7.81,6.81c1.64,1.43,2.68,3.13,2.23,5.08-.98,4.25-8.84,6.44-16.32,7.01,8.2,20.94,4.44,42.36-9.31,60.27-13.35,17.38-30.44,32.15-50.62,41.06l-39.64,17.5c-27.02,9.5-53.71,16.57-82.17,20.77-26.49,3.92-51.89,7.68-79.38,8.91ZM534.39,305.82c4.83-8.74,10.43-14.7,16.81-21.27l-32.18,12.38,15.37,8.89ZM231.29,325.48c-10.92-7.99-22.25-12.95-35.54-15.55l-76.89-15.04c-13.97-2.73-27.04-5.31-41.02-6.95-3.56-.42-7.32-2.86-11.17-.71-1.22.68-1.97,3.78-4.58,3.29l3.37-4.1c-5.43.89-9.7,2.84-13.8,5.68,1.8,3.31,4.84,2.7,7.05,2.82,2.6,3.58,7.03,4.46,11.17,6.04l94.64,36.12c11.79,4.5,23.16,6.33,35.72,5.91l19.77-.67c1.35-4.68,1.57-11.35-1.23-12.85,5.09-.93,8.48-1.84,12.5-4ZM846.23,412.82l.21-25.38-5.2-3.04c2.02-2.01,2.11-4.19,2.04-6.81l-.43-16.58-.76-26.42c-.17-5.91,2.77-9.79,8.05-11.15l19.53-5.04c-2.26-1.95-4.43-1.27-7.03-.49l-14.63,4.42c-1.08.33-2.73-.58-2.99-1.9l20.41-5.67,15.3-4.11-29.18-22.87c-11.38,5.57-20.89,13.04-30.52,20.17l13.96,9.79c3.28,2.3,5.6,3.76,10.27,4.41-4.01,2.29-5.03,3.96-4.94,7.4l1.22,48.03c.04,1.46-.96,4.38-2.29,4.36-9.85-6.89-18.98-14.04-29.91-18.47-1.65-.67-3.79,2.5-3.77,3.71s1.4,2.28,2.77,2.94c-2.25,1.38-4.51-1.11-5.96-.95-5.17.91-8.96,3.56-12.1,6.82,1.24,1.16,1.33,2.03,1.04,3.02-.34,1.15-1.15.65-1.89-.13l-1.57-1.66-13.81,8.89,26.62,14.97c14.66,5.83,29.84,8.94,45.54,11.75ZM755.07,347.83c-1.55-5.35-5.65-7.34-10.86-8.37l-36.76-7.21c-7.52-1.47-14.1-4.2-21.91-5.26l-94.01-12.8c1.94-2.14,5.3-.82,7.65-.53l23.05,2.88,34.97,4.95c16.23,2.3,32.13,3.88,47.84,8.17l39.32,7.63c6.23,1.21,10.81,4.21,12.77,10.42,4.59,14.5,7.73,33.54-2.83,43.86,11.18-3.24,19.49-6.05,19.34-17.08-.2-14.42-1.81-28.2-4.05-42.37-.37-2.31-2.05-6.11-4.34-6.62l-26.26-5.78c-9.49-2.09-18.23-5.38-26.41-10.61-2.43,2.65-3.61,5-6.61,6.35.97-3.35,4.24-4.16,5.75-7.15-42.37-8.63-83.83-13.78-126.21-17.05-3.61-.28-7.68-.99-10.82,1.03-9.8,6.29-17.46,4.47-29.33,2.52-3.84,4-6.98,8.17-9.99,13.24,13.09,2.12,26.73,3.27,40.34,2.13.92-.76,3.35-2.3,4.03-1.53.95,2.18,1.74,3.41,3.48,4.63l-15.02-.82c-10.83.47-21-.38-32.05-2.01-2.53,4.91-2.95,10.5-2.19,16.13,2.96,21.95,4.39,29.13,23.19,39.98,9.03,5.21,18.1,9.45,28.62,10.38s21.16,4.1,32.05,5.71l39.34,5.83,32.14,4.63,19,3.26c6.26,1.07,12.58-.24,18.73-1.05l18.39-2.43c17.98-2.37,14.71-27.57,9.62-45.08ZM431.17,396.07c-54.07,31.56-115.22,44.74-176.71,49.99-35.65,3.05-70.38,3.21-105.79-1.99-37.55-5.52-81.39-18.69-106.22-47.5-12.31-14.28-14.66-32.91-6.92-49.78,4.17-9.1,10.75-16.15,17.21-23.59,1.23-2.33-2.39-5.95-3.29-7.15,1.8-3.25,6.22-.41,8.15,1.49,5.85-2.23,11.33-7.17,16.93-11.55l-19.59-7.38c-2.06-.78-3.25-3.36-5.89-4.06-11.78,7.77-36.54,30.87-38.07,40.57l-2.17,13.8-.66-.88.79-10.63c-17,37.18,6.55,66.53,39.56,83.98,15.21,8.04,30.56,14.13,47.43,18.5,26.72,6.92,53.2,10.7,80.93,12.08,79.65,3.98,166.62-7.35,239.52-40.11,9.41-4.23,17.86-8.44,26.5-14.18-3.26-1-8.28-3.56-11.71-1.61ZM529.12,312.13c-4.79-6.12-19.33-13.52-21.16-13.13-1.53.33-3.13,1.54-4.57,3,6.84,5.93,18.4,12.77,25.73,10.13ZM533.07,309.49c-2.86-3.99-6.56-5.92-11.15-7.05,3.14,3.72,6.77,5.73,11.15,7.05ZM977.06,307.06c1.08-1.48-.87-3.58-1.54-3.28-2.03,1.64-4.87,3.33-6.31,5.64,2.6-.28,6.02-.58,7.85-2.36ZM512.04,349.53l.94,19.01c1.76.59,4.3-.45,4.2-1.99l-2.02-31.12c-.34-5.2,1-12.93-2.75-17.07l-19.93-13.6-3.07,5.56,19.85,10.17c1.27-.58,2.26-1.26,3.69-.13-2.33,1.48-3.08,2.98-2.9,5.14l2,24.03ZM209.25,403.25c3.45.35,8.05-2.4,9.63-5.02l-3.34-31.88c-.72-6.84,1.98-11.94,7.88-16.04-1-1.9-2.85-2.6-2.69-5.46-9.84,1.01-19.77,1.17-30.35.96-1.56-.03-2.82.82-4.5,2.07l-.42-2.74c-5.91-1.09-11.59-1.36-17.43-3.59l-89.95-34.39-17.1,11.83,11.29,9.61c1.78-.78,2.85-1.74,5.1-2.03-.45,1.73-1.4,2.54-2.51,4.23l18.55,15.58,30.2,25.72c4.98,4.24,10.43,7.03,16.38,9.21-.06-1.31-.58-2.37.56-4.12,1.01,1.55.87,2.72,1.42,4.72l44.5,19.02,22.79,2.33ZM964.26,319.2c-1.73.19-2.84.64-3.35,1.53-.33.6-.46,1.55-.73,3.6,8.53,1.25,18.24-3.88,18.58-14.23-4.93-.62-6.86,8.62-16.55,6.25.45,1.65,1.26,1.99,2.04,2.84ZM838.16,353.47c.37-10.98-.83-20.05,1.23-30.06l-19.4-13.58-4.48,30.74,22.65,12.89ZM533.5,364.04c1.66-2.88,5.5-1.63,8.12-4.23-4.67-5.69-6.55-11.89-7.97-18.68l-3.27-15.65c-.91-4.34,1.05-8.6,1.79-12.76-3.69.41-4.02,3.59-3.83,6.71l1.8,29.12c.35,5.71-.05,11.42,2.54,16.05.37-.06.66-.29.82-.56ZM883.91,321.72c3.11-1.01,5.97-1.57,7.86-4.44-4.27-2.22-8.27-.67-12.56.68-1.21.38-1.83-2.04-.78-2.25,2.49-.51,5.97.16,7.09-3.31l-15.75,4.32c2.84.54,5.35-.9,6.74,1.68l-27.76,8.25,4.74,4.91,30.42-9.83ZM376.63,360.88c4.42,1.33,7.87-.05,10.85-3.18.35.62,1.4,1.56,2.08,1.34l27.48-8.81,53.02-16.82,34.86-11.93c-5.35-2.62-10.72-7.62-16.79-7.74l-25.72,8.16-27.15,7.95-.31,7.7c-.17,0-.53-.1-.71-.51l-.37-6.68-54.37,17.46-25.8,7.82c4.97,2.19,9.94,1.32,14.8,2.78l8.14,2.45ZM524.03,350.03l.44,17.35c.05,1.92.55,3.23,2.24,3.17.97-.03,2.79-1.39,2.55-3.17-1.55-11.77-1.68-23.24-2.68-35.07l-1.47-17.41c-1.64.21-2.98.15-4.96-.13l.9,8.04c-1.59-1.49-1.67-3.39-4.63-4.63l3.8,53.51c.07,1.03,1.45.67,1.53-.16l.2-2-.68-24.9c2.22.71,2.69,2.79,2.75,5.39ZM251.66,327.6c-1.57-.65-4.05-2.83-6.25-2.13-.6-.58-.11-1.86.35-1.93,4.6-.74,12.71,3.66,23.16-3.78-2.29-2.83-4.77-2.24-7.76-2.24-5.3,0-11.74-.73-16.03,3.15l-5.81,9.41c3.79,4.33,8.56,4.57,13.96,4.53,6.65-.06,14.24.21,19.27-4.88,1.75-1.77.02-6.1-1.95-8.31-4.82,3.95-12.17,6.09-18.94,6.19ZM948.41,358.97l4.86-21.5,6.04-20.47-24.43,20.18c-3.33,2.75-6.46,4.29-9.33,8.68,3.86-.29,4.58,1.11,6.71,2.51l16.15,10.6ZM69.06,332.94c.74-.65,1.32-1.72,1.07-2.68-.19-.72-.98-1.29-1.73-1.86l-12.96-9.92c-.24,3.82,1.13,6.72,3.74,9.11l6.28,5.75c.74.67,1.43,1.1,2.1.95.44-.1.89-.57,1.09-.9.1-.17.25-.32.41-.45ZM864.26,392.2l-3.71-1c-.87,1.56-.39,3.06.25,3.31.68.27,2.32.37,4.04.16,1.17-7.61-.14-15.36,0-23.31l.47-27.89c.03-2.06-.79-3.53-2.41-4.68,2.04-.61,2.8.11,4.4.73l32.76-12.16c.98-2.78-2.74-5.04-5.77-4.54.43-1.5,1.48-1.59,2.27-1.97-3.29-.66-5.42.29-7.74,1.45,2.33,1.2,4.14.28,5.97,2.67l-17.18,5.19c-.2-2.3-.12-3.65-1.15-4.69-.19,9.71-7.73,5.19-13.89,10.9.46.71.6,2.06.18,1.95l-2.27-.62c-1.3,10.7-.33,21.55-.06,32.61l.47,19.5c2.14-.48,3.8,1.18,3.36,2.37ZM1034.13,409.99c-4.77-16.89-12.72-32.5-23.1-47.2-1.58-2.23-1.97-4.41-6.39-3.19l2.64-2.28-28.37-37.51c-5.14,5.68-11.6,7.98-19.23,7.81l-2.1,6.7,26.26,25.64c9.93,9.69,19.45,19.14,27.29,30.67,3.81,5.6,5.72,12.63,10.71,17.25,2.87,2.66,8.1,1.42,12.3,2.12ZM410.07,354.72l-22.38,7.3c11.34,4.19,43.34,12.07,45.49,11.36l16.46-5.45c19.59-6.48,39.13-11.4,58.91-18.35,1.1-8.83-.46-17.13-1.56-26.11l-12.2,4.74-54.96,17.68c-.03,2.21.2,3.78-1.28,5.07-.34-2.39,0-3.97-1.79-5.51l-.98,4.26c-.1-.62-1.37-2.56-2.29-2.23l-18.6,6.61-2.18,2.58-2.63-1.96ZM219.37,429.66c-6.71-.74-12.22,1.45-17.91,4.34l-27.47-17.28-53.96-32.96c-10.21-6.24-23.38-22.47-35.61-30.5-8.88-9.94-20.59-16.87-30.37-27.11-18.58,18.44-28,41.93-12.75,64.37,6.95,10.23,16.2,17.7,26.84,24.18,39.44,24.02,86.16,28.73,131.69,30.7,1.61-.78,2.66-3.62,3.01-5.49,7.17-.34,12.91-4.16,16.54-10.25ZM236.07,328.73c-3.63-.5-6.77.09-9.71,1.39,2.9,1.5,4.38,2.5,6.35,2.46,1.51-.03,2.63-2.07,3.35-3.85ZM852.81,365.32c-.64-1.36-2.66-2.97-2.53-4.31,1,.29,1.73.06,2.01-.35.23-.34.25-1.31.24-1.98l-.34-24.37c-.01-1.09-2.68-1.31-4.04-.86.66-.78,1.41-1.1,1.64-1.99l-4.53-2.81.2,29.82c0,.9,2.46,1.38,2.89,1.63-.98.37-3.03.83-3.21,1.47l.98,20.67c2.22,1.76,3.92,3.1,6.22,4.08l.47-20.98ZM858.62,392.06c-1.39-19.79-1.94-38.28-1.26-57.27,4.18-2.15,8.12-.45,7.46-4.53l-9.68,3.18-.2,23.09,1.31,36.81c1.08,1.45,2.55,1.04,2.37-1.29ZM991.05,409.85l24.56-1.08-46.67-31.98-68.6-46.64-30.84,11.26,65.39,44.4,28.69,19.37c2.62,1.77,4.71,3.7,6.84,6.07l20.64-1.41ZM69.43,334.15c-.41,1.33.18,2.57,1.54,3.76l46.9,40.74-3.4-6.59c-2.21-.27-1.14-2.54.55-1.58,6.11,3.1,9.61,8.71,14.73,12.56,2.03,1.53,5.51,2.83,7.98,3.9l30.14,13.01c4.16,1.8,8.94,4.92,13.28,5.23,3.56.25,3.28,1.5,5.3,3.03,4.51,3.41,10.85,3.24,16.23,4.92-1.22,2.25-3.31,1.73-5.61,1.51l2.74,2.45c-3.16,3.43-1.38,7.66-.23,11.2,3.36.7,6.27.43,9.71-1.09-4.59-5.35.76-10.73-5.36-11.48-.69-.09-.65-2.03-.09-1.98.37.04,2.11.18,2.42-.14,1.73-2.44,2.34-5.63,2.65-8.09-11.08-1.86-19.73.64-30.35-4.29-16.14-8.47-32.22-15-49.45-21.59l-57.09-47.91c-.84-.09-1.73,1.63-2.18,2.06l-.41.39ZM234.32,336.71c-4.07-2.6-7.12-4.25-11.16-4.62.05,3.58,2.29,4.95,4.3,5.76,2.5,1.01,5.29,1.65,6.86-1.15ZM1002.28,393.03l5.17-3.84-8.81-11.19c-.61-.55-2.42.26-3.41.54,1.25-1.78,1.32-3.41-.15-4.82l-18.43-17.65-20.16-19.51-5.13,25.05,3.33-1.15c1.21-.42-.54,2.31-.12,2.58l15.82,10.11c.42.27,2.37-.8,2.43-.3.04.37-.25,1.57.19,1.9l13,9.67c.95-1.51,2.32-2.18,3.33-1.43-4.71,4.13,1.24.61,4.89,6.05,1.52,2.26,5.2,3.39,7.31,4.75l.75-.76ZM477.53,400.81c3.42.63,5.4.02,7.36-2.48l.61,4.05,12.81-6.53c-5.8-1.34-8.86,3.03-11.57,2.74-.66-.07-1.3-1.48-.44-1.88,1.74-.81,3.93-.37,5.6-2.39l-16.92-5.52-47.53-12.64c-25.03-6.66-49.33-12.58-74.96-16.79l-59.37-9.76.77-7.56c-5.73-4.07-12.85-1.43-13.04-2.85l-.26-1.92c-2.26,1.54-3.41,2.53-4.96,4.63,5.59,1.42,10.82.4,16.11.1-1.91,3.35-7.22,5.11-10.09,3.77-5.28-2.48-10.18-4.24-15.95-1.48,7.94,7.17,16.36,1.13,26.68,4.19-.81,1.45-2.32,1.93-3.13,2.52,2.24,4.26,5.82,5.4,9.75,6.8,21.71,7.75,42.82,14.56,65.44,19.56,27.43,6.07,53.78,12.78,81.2,17.39.26-2.01,1.23-3.09,2.03-3.25,1.02-.2,1.96-.04,2.62.66-1.44,1.34-2.16,1.86-2.93,3.12l30.14,5.53ZM1327.88,352.94l-17.42-14.94-19.78,20.6,37.19-5.66ZM234.54,350.51l-.47-9.01c-3.86-.03-7.05-.4-10.79-1.28-.21,3.33,0,7.03,2.32,8.94,2.17,1.79,5.9,1.45,8.94,1.35ZM239.6,342.64c-.43-.36-1.24-.85-3.08-1.11l1.2,12.83c3.6-2.77,2.26-11.4,1.88-11.72ZM838.83,377.81l-.13-21.69c-1.97-2.84-5.16-3.54-7.75-5.05l-15.51-9.03-.64,12.17-3.85,6.53,27.89,17.06ZM240.69,351.92c6.97,5.22,14.69,6.39,22.26,4.52-.38-4.2-.34-7.66.07-11.96-6.83.48-13.96.39-21.06-1.13-1.23,1.05-1.15,4.26-.08,5.64,3.48-.88,6.27-.74,8.43,1.46-3.61-.63-6.89-1.8-9.62,1.47ZM881.25,385.39l-2.54-1.64c-1.3-.84-1.05,7.89-3.42,14.65l19.91,14.2c1.8,1.29,3.34,2.71,4.92,1.26,1.38-1.26,1.05-3.17,1.47-5.42,1.61,2.7,1,5.87-.04,8.75l6.65,3.44c5.67-1.58,11.05-1.96,16.91-2.28l5.06-1.77c4.03-.14,7.15,0,11.3-1.1,0-2.19-.64-4.2.24-6,.93,1.81.47,3.21.52,5.51l26.04-3.64-21.43-14.47-57.46-39.44c-.72-.86-1.61-2.21-2.27-1.44-.84.98-.87,2.06-1.35,3.83-1.1-1.63-.9-3.49-1.03-5.87l-16.63-10.74-.13,31.23,14.32,10.41c.03.26.32.63.79.73,4.37,3.03,8.83,4.69,12.32,8.74-4.12.78-3.65,2.84-4.95,5.57-.92-3.15.11-5.44.02-8.16-3.28-2.04-6.13-3.3-8.26-5.7-.16-.18-.45-.32-.97-.66ZM288.82,359.94c1.21-2.24.11-8.13-1.84-9.74-2.34-1.66-5.85.81-7.92,1.05l-7.03.82c-.92,2.86-2.92,3.73-6.16,3.69,3.97,5.15,17,6.4,22.95,4.18ZM493.78,374.83c-.96-4.03-1.21-6.28,1-8.42l.47,7.82,14.46-5.39c.82-5.96.15-11.77-.73-17.18l-32.91,11.37c8.05,3.35,1.13,9.38-4.07,19.2l21.77-7.4ZM251.97,365.68c-6.77,6.53-13.16,9.65-20.01,4.1l-10.01-8.11c2.87-9.81,12.18-1.47,13.51-6.49-3.49-1.85-9.5-2.69-13.13-.63s-3.63,6.46-3.14,10.22c.4,3.08,2.94,5.59,6.49,7.36,17.67,8.83,38.64,5.69,57.56.46,6.85-1.89,12.79-4.41,16.84-10.46l-7.97,4.4c-11.75,3.85-23.85,6.91-36.25,6.59-2.36-1.18-3.14-5.19-3.88-7.44ZM1245.11,391.01c9.27-.28,16.42-4.09,24.55-6.07l47.37-11.55,21.46-5.55c6-1.55,11.64-2.99,16.68-5.73-6.38-8.28-12.38-7.64-22.17-6.03.72,1.49,1.26,2.11.84,3.74-1.6-3.17-3.84-3.22-6.97-2.79l-30.75,4.27-16.87,2.06c-3.94.48-6.33,1.22-9.32,3.95l-19.25,17.63c-2.16,1.98-5.02,3.61-5.55,6.07ZM267.16,361.04c-1.47-1.61-3.46-1.7-5.9-1.46-10.8,1.08-21.15-4.72-21.72-2.48-.14.54.04,1.7.96,2.17,8.35,4.36,17.39,3.64,26.15,2.28.19-.03.44-.25.52-.51ZM231.92,366.44c.26-2.95-.47-4.68-1.49-6.17-.97-1.41-4.36-.28-4.32,1.01,1.3,2.55,3.9,4.06,5.81,5.16ZM267.2,362.09l-2.02,7.82c10.31-2.03,27.09-2.93,28.88-10.01-5.49,4.82-10.49,5.4-17.18,3.97-2.99-.64-6.98.15-9.1-2.17l-.58.39ZM533.01,365.45c-1.34.06-1.82.8-1.85,1.53-.02.37.55,1.58,1.22,1.45,4.64-1,10.1-1.91,13.29-6.42-4.73-.09-7.93,4.16-11.87,2.75-.11-.07-.64.06-.78.7ZM247.95,364.43c-6.58-3.02-9.02-1.32-13.91,3.52,4.26,4.06,11,1.73,13.91-3.52ZM313.46,366.79c-4.79-2.14-8.01-2.64-12.14-3.43,1.28,2.67,1.71,4.41,2.03,7.04l10.12-3.61ZM475.6,370.25l-9.95,9.16-2.33-2.59,11.9-12.16c-7.08.1-13.4,1.63-19.91,3.97l-17.5,6.27,18.53,5.63c2.06.62,4.21-.73,5.55-1.96.55,1.76,1.16,3.3,2.11,3.75,4.26,2.07,8.21-4.92,11.6-12.06ZM1269.98,364.52c-4.63,1.27-10.62,8.35-10.53,7.53-.06.56.84,1.67,1.36,1.65.23,0,7.28-5.78,9.17-9.19ZM1241.26,385.58l23.06-19.79-40.12,4.67-27.63,3.44-48.46,8.54-15.78,5.21c-4.58,1.51-8.85,3.35-12.27,6.66,3.11.98,6.95,1.2,8.38,3.96,1.88,3.63.63,7.89.85,12.09l26.51.63c16.97.4,33.26-3.72,49.6-8.28l26.75-7.47c-2.2-3.19-5.23-1.94-8.02-3.44,6.64.48,11.79-1.75,16.42-5.47.2.03.64-.18.71-.74ZM238.36,412.08c7.27-.45,14.29-2.73,22.25-1.21l-18.5,2.21c20.16,3.4,43.44.57,60-12.75.84-5.4-.29-10.45-.7-15.77l-1.37-18.23c-4.87,5.43-11.14,8.01-18.03,10.08-16.69,5.02-33.79,6.04-50.82,2.36-3.28,2.74-6.24.19-11.2-2.34.97,9.37,1.62,17.9,2.06,27.08.15,3.23,2.38,5.13,5.45,5.81,3.38.75,7.33,2.98,10.86,2.76ZM212.81,411.49c.37-.16,2.01-.08,2.3.31-.19,1.58-2.52,1.4-4.27,1.23,7.87,12.66,28.62,14.11,43.43,13.66,23.93-.73,61.41-6.91,59.44-31.95-2.7.95-3.06-1.77-.66-1.51,2.29-2.68,2.91-6.18,4.14-9.63-1.37.5-2.41,1.54-4.17.59l26.6-10.15c-6.64-1.26-11.92-1.97-17.71-4.25-2.72-1.07-6.12-.18-8.81.58l-8.7,2.46.51,12.51c1.83-.02,2.85-.31,4.73.61-1.2.71-2.43.7-4.42.9l1,15.72c.29,4.57-3.01,7.85-6.57,10.47-17.37,12.77-43.97,13.95-64.75,8.98-6.96-1.66-12.01-5.81-14.88-12.32-1.42-.62-2.89-.6-4.05-2.27,1.08-1.17,2.93-.21,3.78-.16.63-1.4.08-3.13-.87-4.74-8.94,4.99-8.45,10-6.06,8.96ZM1150.29,496.9l9.01-2.58c-.11,1.8-.83,2.38-2.06,3.83l18.07,5.54c20.51-3.47,39.89-8.92,59.47-15.44l34.89-14.23c19.39-9.12,37.23-20.3,51.96-35.97,18.02-19.16,26.62-41.38,16.51-67.09l-48.21,12.38c-3.99,1.03-7.27,3.5-11.92,2.83l-33.11,9.06c-17.92,13.54-31.32,31.17-46.69,47.26l-5.75,6.02-21.6,16.82c-.84.65-3,1.4-2.32,2.44l1.67,2.55c-1.52.83-3.34.54-5.17-.08l-16.4,14.74c.45,4.01.14,7.75,1.64,11.92ZM1241.2,387.43l-8.69,6.26c6.28,1.79,10.21-1.57,13.13-5.81l12.17-10.83c.91-.81-.12-2.22-1.16-2.42-.84-.17-1.36.5-2.14,1.19l-12.52,11.04-.78.57ZM608.25,398.61l6.83-1.34-4.23-12.43-27.05-4.82c-5.51-.98-10.49-1.84-15.54-4.54-.2,2.55.19,4.29-.57,6.32l-2.94-1.34c-.47-.21-1.46.81-1.27,2.02,2.61-.69,4.98.93,7.5,1.32,13.14,2.08,25.78,3.27,39.52,3.75-1.38,3.81-2.4,6.96-2.25,11.04ZM311.5,435.38c4.37-.87,4.92-6.68,7.3-9.26,6.3-6.8,20.34-6.35,15.91-11.65-.55-.66-2.09-.46-3.76-1.46,1.95-.36,3.33-.79,3.18-2.89-.1-1.39-.34-4.22-2.57-3.55l-13.33,3.99c-.28,3.4.61,6.24-.6,9.07l-1.15-9.62,16.96-5.18-1.19-11.97c-.04-.36,1.77-.53,2.41-.36.42.11.51.79.12.93-3.1,1.12-.18,4.46-.57,10.25,1.74-.1,2.99-.38,4.06.38-1.34.42-2.31.65-2.78,1.25-.32.4-.45,1.26-.32,2.14l1.53,10.49,17.25-5-1.76-12.98c-.05-.39-2.12-.26-2.48-.12-.44.17-.6-1.26-.02-1.23,4.31.17,2.54-5.72,1.39-12.88-.46-2.83,1.06-6.2-1.09-9.1-6.18-1.15-12.63.84-18.12,3.34.55,4.04.83,6.79-.15,9.7l-.79-9.89c-12.09,4.27-14.18,6.82-14.56,19.53,1.33-.45,2.32-1.5,4.15-.3-3.45.66-4.3,2.59-5.27,5.7-2.06,6.66-7.47,11.92-14.05,14.91-20.31,9.21-42.71,11.12-64.88,9.28-5.97-.49-9.97-1.17-15.26-4.38-2.88-1.75-7-1.77-9.67-5.14.35,2.05,1.22,2.83.7,4.31-.25.71-1.69,1.34-1.7,3.26,8.72-2.68,11.4.22,18.57,2.64l.78,13.29c.05.91,1.63,1.79,2.51,1.28.24-4.8-1.48-9.36-1.86-14.9,4,3.64,3.63,9,3.67,14.9,18.74-.59,37.1-2.45,55.88-4.81.23-1.74.14-2.98.89-4.15.4,1.64.59,2.84,1.16,3.37.64.59,1.94.33,3.16.09l16.36-3.27ZM872.4,393.51c-.5,2.02.01,3,.3,3.41.27.38,1.99-.5,2.09-1.03l2.35-12.69-9.55-7.09,1.18,17.65c.05.68,1.54,1.73,2.05,1.72.35-.01,1.05-1.26.25-2.37-.31-2.51,2.58-1.4,1.34.4ZM369.13,381.59c-2.77-.75-5.03.12-8.1,1.14l1.03-3.04-9.33-1.54c1.55,6.97,1.52,12.84,2.11,19.43,3.75.58,6.44-1.03,9.38-2.03l25.05-8.53-20.14-5.43ZM1099.98,382.97c-3.69-3.78-7.54-3.63-11.75-3.48-5.76.21-11.43-.34-16.72,2.95,9.23,5.82,19.59,4.92,28.47.53ZM607.09,389.84l-19.89-1.07c-8.63-.46-16.84-1.15-25.03-4.68-.59,4.34-.46,7.37.52,10.96,14.61,2.49,28.66,4.36,43.23,4.59l1.18-9.81ZM1082.25,391.78c2.48-1.21,3.22.44,3.08,1.6-.2,1.65-.22,2.54.17,4.37,6.23-.14,13.5,0,18.56-4.65,1.17-2.07-1.3-6.13-2.22-8.28-9.69,5.79-21.38,6.72-31.8.4-1.42,2.18-2.98,6.39-1.06,8.45,3.81,4.08,10,4.12,14.95,4.01.03-2.69-.89-4.21-1.68-5.91ZM182.13,418.55l-.83-10.89-51.37-22.16c12.77,9.88,26.51,16.97,39.92,25.37l12.28,7.69ZM633.91,442.46l5.83-3.72-7.03-22.67c-3.22-10.38-5.37-20.7-10.48-30.09l-7.22-.63,8.48,28.86,9.91,29.24c.38,1.12-2.96,2.48-3.28,2.79l11.16-1.25c-2.94-.7-5.41.27-7.37-2.54ZM425.7,394.21l-24.72-4.66c1.02,3.34,1.7,5.06-1.26,6.57.19-1.34-.55-3.55-1.86-3.69-.81-.09-2.12,1.42-4.47.74l7.18-3.99c-2.13-2.49-5.77-2.11-8.83-1.1l-26.34,8.75c-3.34,1.11-6.18,2.79-10.18,2.55l1.55,13.04,23.85-6.48,18.37-4.65c8.92-2.25,16.97-4.96,26.71-7.08ZM634.5,392.9c2.01-.44,3.17-1.33,3.6-3.52-4.03.82-7.19.1-10.94-1.8l5.68,16.45c1.57.69,4.09-1.67,3.97-3.37-.21-2.9-.83-5.05-2.31-7.77ZM853.41,394.25c-.85-2.91-2.18-5.39-5.2-6.69v24.16c8.73-3.08,16.43-6.54,23.86-11.4-3.54-7.67-10.17,2.65-18.66-6.07ZM645.57,405.52c-.6-4.59-2.94-8.67-.73-12.49l2.44,9.09c2.41-2.9,3.54-8.7,1.97-11.15s-5.93-1.17-6.73,1.31l-1.92-3.73c-4.51,5.47,4.21,13.81-6.06,22.53,1.3,7.02,3.08,13.45,6.51,20.19,2.76-3.85,2.82-7.58,3.21-11.79l1.3-13.96ZM781.1,420.25l-.94-26.38c-2.85-2.02-5.62-3.64-9.21-4.55l1.58,33.21c3.04.09,5.57-.8,8.57-2.29ZM760.13,427.35c8.48,5.47,14.73,7.01,22.26,2.37-.84-1.9-2.36-3.33-4.12-3.25l-8.76.37c1.25-6.82-.73-13.4-1.04-20.39l-.72-16.47c-2.94,1.46-4.59,2.54-7.51,2.99l-.61,19.67c-.09,2.93-.3,6.04,1.17,9.32,3.82-9.1,3.17-18.42,3.68-28.91,3.28,4.53,3.04,10.27,2.15,15.61l-2.27,13.63c1.44,1.12,2.92,1.54,3.81,3.21-3.15-.41-6.39-.82-8.03,1.85ZM1002.06,394.16l14.43,10.44-8.38-14.18-5.39,3.11c-.23.13-.47.31-.66.63ZM665.34,392.97l-12.93-1.49c-.34,2.3-.62,3.85-.31,6.4,4.63-2.22,8.31-3.82,12.64-4.35l.6-.57ZM665.81,393.62l-.4.5c-2.87,3.84-13.03,2.87-17.18,12.76,8.35-3.59,21.36-8.43,19.98-12.86-.19-.6-2.04-.68-2.4-.4ZM756.76,421.42c2.05-5.58.25-9.6-.26-14.13l-.09-13.58-8.08,2.1,5.87,15.8,2.56,9.81ZM668.16,406.27c-.62-.1-1.98-1.26-1.4-1.65,6.52-4.41,13.46-4.37,20.8-7.31-5.17-1.72-9.84-2.42-15.13-2.82-1.21,5.24-4.59,8-9.1,10.21l2.34,4.85c11.1-2.52,22.27.88,30.07,8.71l8.88-7.16c-23.24-16.91-32.48-4.17-36.45-4.81ZM1107.86,395.29c-8.94,4.32-17.33,6.49-26.39,5.95-6.48-.67-12.19-2.92-17.16-7.16-1.7,2.11-1.71,6.65.71,7.66,12.34,5.16,26.26,5.04,38.59.31,2.85-1.1,5.26-3.59,4.25-6.76ZM793.4,413.4c-.46-4.8.62-8.8-.88-12.46-1.3-3.17-5.96-4.67-9.21-5.5l.2,21.11,9.88-3.15ZM756.73,450.19l-1.59-27.51c-3.61-8.99-5.57-18.63-12.68-26.9l10.31,44.13c.83,3.54.6,7.33,3.95,10.28ZM1124.47,398.9c-1.37-1.44-8.97-2.55-9.21-1.83-.29.88-.31,2.88.44,3.4,1.05.72,2.98-2.62,7.97-.82l.8-.74ZM1201.03,429.36c-.09,2.86-.11,3.72.52,5.25l18.29-19.45,18.04-18.41c-5.51-.7-8.41,3.33-12.04,5.39-5.01,2.85-8.64,6.43-12.73,10.29-6.24,5.89-13.42,10.47-17.94,17.91,2.19.49,3.93-.18,5.86-.98ZM746.9,449.37c3.9-3.18,3.56-5.7,2.75-9.2l-3.14-13.66-7.84-27.64c-.75-2.03-6.24-1.72-7.92-.52l13.82,55.71c2.77,1.45,5.34,1.35,8.72.99.1-2.26-.37-4.44-2.33-6.43-1.35.48-2.06,1.25-4.06.73ZM317.45,434.22c37.21-6.9,71.76-18.18,104.19-35.76l-88.99,23.2c-6.36,2.78-13.04,5.36-15.2,12.56ZM522.11,673.11c2.02-1.66,4.98.69,7.18.05l7.61-2.23,2.81-54.99c1.38-27.08,4.6-52.99,9.08-79.89,7.7-46.2,20.05-90.54,36.3-134.35l-16.92-2.39c-13.19,42.93-23.3,85.86-28.85,130.1-.26,2.08,1.13,3.27-2.01,5.39l4.59.77c-.91,1.04-1.95,1.21-3.3,1.54-2.95,16.55-4.31,33.28-5.79,50.16l-1.89,21.41c-.16,1.86,1.13,3.05,2.49,3.52-1.92.52-3.41,1.19-3.26,1.92l.65,3.19-1.73,29.27-1.47,20.69c.81,1.02,2.02,1.73,1.68,3.91-3.56-1.66-6.79-2.44-10.03-.53l2.48,2.78.37-.29ZM1124.84,399.3l-.71.79c-4.79,5.37-14.09-.45-14.63,6.32,7.52.44,16.81-.96,16.67-4.35-.04-1.09-.67-2.06-1.33-2.76ZM592.44,439.7l26.76-30.06-2.29-9.18-13.69,2.01c-3.24.48-5.38,1.6-6.39,4.79l-11.55,36.25c2.67-.51,5.31-1.74,7.16-3.82ZM716.86,408.9c-8.05-4.5-15.67-7.18-23.54-8.33,5.46,4.85,10.84,6.74,17.3,8.82,2.11.68,4.66,3.93,6.24-.49ZM727.25,400.64l-17.95.07c1.46,3.13,5.16,5.99,8.78,5.61s6.35-3.63,9.17-5.68ZM582.66,433.84c1.15.67,2.28.47,2.39,0l.47-1.94,10.56-29.18-8.35-.78c-5.46,15.34-11.75,29.68-15.47,46.22,3.47-.97,8.65-3.43,10.4-7.18-.04-1.91-1.33-5.1,0-7.15ZM1147.05,413.98l-17.97-.44c-1.65,4.88,3.1,7.95,4.06,11.92,2.7,11.16,2.2,22.19,1.72,33.75,19.17-14.98,50.86-25.09,63.97-36.98l22.55-20.45-25.76,7.1-19.3,3.72c-1.3,2.5-1.56,5.25-3.59,6.93.07.09-.19-.25-.66-.59l2.31-6-24.1,1.66c-.73.11-1.04,2.59-1.84,2.96-.13-1.07-.35-3.55-1.39-3.57ZM888.74,425.35c-.49.83-1.63,1.78-2.79,1.95l-19.11,2.74-34.72,5.36-35.86,5.07c-1.04-6.19,6.07-1.45,12.54-5.57,1.02-1.92-.09-6.51,2.49-8.31,1.07-.75,2.94-.6,4.28-2.12-2.5-2.55-3.74-5.45-5.11-8.28-.83,4.28,1.41,8.1-1.83,11.87-1.09-8.13-2.58-17.01,1.38-18.14,2.12-.6,7.38,4.16,13.52,2.4-4.04-2.74-8.9-1.91-13.35-3.8l-13.99-5.94,1.01,29.9,9.25-3.11c.99-.33,2.22,3.54.61,3.75-5.13.69-9.92,1.13-13.7,4.34.64,2.28,1.6,4.26,2.92,5.62-.95.95-2.67.4-2.72-.19-.04-.54-.73-2.23-1.28-2.12l-22.87,4.7,3.18,6.8c1,2.13,4.2,2.11,6.74,1.94l105.13-7.26,87.18-6.04c26.2-1.82,51.26-8.35,75.13-18.68,1.03-2.02.87-6.1-.67-7.33l-17.45-1.77c-11.9-1.2-23.42-.77-35.35.13l-30.12,2.29-64.28,9.65c-3.44.52-6.32.7-9.15-.71-.29.12-.66.3-.99.86ZM1063.17,417.13c-2.95,3.91-1.97-2.89-5.47-3.51-1.84-.33-2.39.81-3.04,2.65-.63,1.08-3.36-.51-4.25-.55-2.63,2.87-1.31,10.16,3.23,10.22,6.92.09,13.37-3.09,19.65-4.97-.07-3.84,1.11-7.02.2-9.97-1.66-5.37-17.49-10.43-25.27-7.3l10.88,1.29c.62,1.94.41,4.19-.5,4.36l-2.96.56c-4.73.9-9.48.39-11.28-4.76-2.7,1.07-2.26,2.76-1.64,4.42,2.43,6.44,24.75-1,26.56-.5.81.22,1.45,1.73.9,2.18-3.1.01-6.02.47-8.96,1.59.34,1.4,1.99,3.17,1.93,4.29ZM717.37,411.18c-3.6,2.42-2.65,4.47-1.91,6.93,2.95,9.81,4.5,19.23,2.68,29.48,3.17-1.64,7.54-2.88,9.22-5.78l3.19-21.06,1.46-3.08-3.28-14.34-9.42,5.73c8.53,7.67,8.08,18.94,5.76,30.28-.61,2.98-2.66,4.94-5.66,4.95,6.13-10.75,7.04-25.02-2.04-33.12ZM1076.39,421.96c13.1,1.5,31.02.85,30.85-9.42l-.14-9.18-7.42,2.95c2.1,3.77,3.55,7.02,1.99,10.4-.93-3.7-1-6.77-3.42-9.58-7.48,1.52-14.44,1.68-21.86,1.3v13.53ZM224.32,411.41c2.53,4.73,6.66,5.62,10.83,7.4,17.75,3.9,36.3,3.51,53.42-2.82,6.03-2.23,11.59-5.49,13.97-11.64-6.52,4.64-12.47,8-19.96,9.56-14.59,3.96-29.91,6.19-44.37,1.76l-13.89-4.26ZM839.08,416.12l17.02,2.54c4.56.68,7.67-.99,11.32-2.86,4.51-2.32,6.5-5.71,5.34-11.09l-18.89,8.49c-4.72,2.12-9.28,3.11-14.03,2.02l-.76.91ZM881.16,409.32c-1.12-2.6-3.05-4.28-5.82-5.2l-1.05,8.13,6.87-2.93ZM641.95,444.47c4.34,1.27,5.95.83,9.59.17-3.89-7.12-1.57-13.67-1.63-21.07-.03-3.95-1.76-10.04,3.73-11.79,2.66-.85,5.78-1.28,6.44-6.18-3.28.18-8.75,1.18-10.81,4.89-1.51,2.72-3.55,15.78-1.29,19.24-.54,2.67-4.54,3.49-6.58,4.07,3.37,2.99,2.18,7.09.56,10.67ZM1110.54,418.63c5.95.96,10.71.43,15.55-.97l.05-11.09c-4.99,2.86-10.09,3.45-16.2,2.88-.18,3.2-.14,5.94.61,9.18ZM889.2,423.94l13.21-2.62c-6.21-5.3-12.84-9.09-20.04-13.1,2.2,4.26,3.77,8.45,3.29,12.64-1.21.96-3.82.99-5.36.37,1.89-3,2.79-6.27.68-9.9-1.8,1.2-2.44,2.72-3.02,5.65-.76-.99-.92-1.85-1.17-3.93l-14.43,7.65c-.37,2.06-.38,3.66.09,6.2l10.76-2.21c.02-2.67-.27-4.57.5-6.46.96,2.11.6,3.35.63,5.37.96-.82,2.33-1.41,3.06-1.01l2.33,1.29c2.44-2.08,6.63-1.04,8.96.72.29-.17.48-.43.52-.67ZM185.14,416.04c4.22-2.46,8.69,1.02,10.12-2.25l-10.83-3.44c-.55,2.45-.19,4.5.27,6.11.11-.15.26-.3.44-.41ZM706.2,445.92l-4.31,13.81c17.46-6.97,15.92-23.76,10.86-40.63l-9.78,6.32,3.16,10.25c.33,1.08-1.67,1.27-2.16.57-1.58-2.27-.51-6.4-2.91-9.55-1.72.85-4.65,1.44-6.27.12-1.1-.9-2.78-2.55-3.24-4.24,2.02.28,2.89-.9,2.71-1.43-.12-.35-.48-1.26-.97-1.8-10.18-11.2-28.8-11.15-38.09.87,1.47,1.09,2.98,2.44,2.66,3.47-.41,1.38-.85,2.48-2.12,3.92-.9-1.04-1.15-2.24-2.05-4.31-1.66,5.69-2.75,12.01-.2,17.96,2.71,6.32,5.23,12.87,10.61,17.48,7.66,6.57,19.74,7.63,28.4,3.55,1.18-3.58,2.96-7.76,6.73-9.78l.11,5.29c4.28-5.92,1.74-11.44,6.86-11.87ZM698.99,424.03c4.98-2.53,9.22-4.47,12.85-7.98,1.2-1.16-1.02-5.26-2.33-4.38l-10.23,6.88c-1.47.99-2.14,1.88-2.1,3.39.02.74.88,2.55,1.8,2.08ZM839.34,415c-4.59-.94-8.82-2.98-14.29-2.32,1.11,1.69,3.1,1.53,4.81.86.93,1.69.49,3.06-.08,3.86-5.6-2.92-11.21-2.68-16.92-3.44,1.31,5.63,4.9,9.46,9.52,10.38l12.97,2.57c-2.52,1.4-4.22,2.16-5.11,4.6,4.18.28,7.74-.02,11.19-1.39-1.98-1.44-3.67.12-4.71.08-.93-.04-1.84-1.76-1.48-2.28,1.56-2.25,10.38,2.65,22.19-.04,2.47-.56,3.25-1.8,3.06-3.82-.25-2.58-1.6-2.33-4.1-2.73l-22.23-3.63c-1.17-.19-2.3,0-2.77-.74-.26-.41-.53-1.8.03-2.39,2.37.59,5.01,1.19,7.22,1.13l.7-.68ZM573.99,454.44c-.06.53-.69,2.25-1.23,2.22s-1.41-1.22-2.07-2.14l-4.55,16.05-4.85,12.27c2.26,1.11,3.78.54,6.35.85l-6.54,2.77c-10.32,42.26-15.68,84.47-19.29,127.66l-2.83,57.46c3.07-.64,4.35-2.3,7.44-1.9-1.54,2.65-4.12,3.3-6.54,4.55,9.31,1.01,10.12-10.95,8.96-22.08-1.91-.22-3-.32-3.99-1.3,1.63.02,4.05-.18,4.26-1.05.63-2.64.77-4.2.58-6.91-1.64.87-3.91-1-3.2-1.64,1.31-1.18,2.2-2.06,2.02-3.24s-1.57-1.88-3.4-1.6c.87-1.95,2.65-1.68,4.75-1.09l2.35-32.51c-.83-.69-1.72-1.77-1.45-2.3l1.13-2.23c.98-1.93,1.89-4.15-.88-5.3,4.12-1.27,3.5-9.15,2.54-9.26l-3.48-.43,2.77-2.64-.28-3.4,2.71-2.23c.68-.56.12-2.48-1.14-2.51-1.34.34-1.88,2.35-2.33,3.05-2-1.88-1.3-3.73-.11-4.1l4.2-1.31,1.87-12.7c-.51-.6-1.24-1.21-1.08-1.47l1.15-1.78,2.75-16.74-3.69-1.6c4.14-.8,4.61-2.64,5.15-5.56l3.15-17.18c-1.28.54-2.43,2.01-4.46.93,2.14-1.56,5.23-2.56,6.43-5.61,1.04-2.63-4.26-.52-5.71-2.35,2.69-1.08,5.29-1.06,6.97-3.31l-5.07-.49-.03-1.49c1.58-.37,3.41.15,5.23-.85l7.1-30.48c-2.99.12-5.86,2.22-8.09,1.63-1.48-1.59.96-3.12,2.52-3.63l15.08-4.98c1.1-.73,1.79-4.02,4.54-3.54,9.71-13.04,20.92-24.24,33.84-34.2-.87-3.83-1.91-6.79-3.74-10.55l-14.83,16.12c-6.19,6.73-11.74,13.26-18.74,19.3-.62,1.03-.72,3.24-1.98,4.13l-9.39.08c-.29,0-.79-.02-.87.63ZM185.72,416.51l-.61.6c1.93,5,6.47,8.65,11.68,10.42l-.5-9.91-10.58-1.11ZM794.02,423.3l-.13-5.94c-3.45.48-7.46.95-10.25,3.62-2.13,2.04-1.57,5.79.41,7.92,3.26-2.69,6.37-4.03,9.97-5.6ZM1109.52,420.19c-11.72,5.18-22.45,6.57-34.23,4.21-3.09-.62-6.87.07-8.05,2.92,14.08,3.35,39.78,4.97,42.28-7.13ZM736.78,438c-.2-6-1.21-11.04-3.15-16.6l-2.47,19.69c1.14.37,5.69-1.12,5.63-3.09ZM1043.6,427.42l-17.22,6.36-10.12,2.55c.68,1.9,3.26,2.68,4.7,3.2,1.81.65,3.35-1.98,4.8-2.3l13.03-2.93c-.14-1.47-.1-4.04,1.87-3.77,1.11.15,1.81.48,2.61,2.16,11.02,23.08,89.25,16.8,87.9-4.65-.13-2.07-1.18-5.84-4.09-6.31-3.5-.56-7.26.54-10.12,1.52,4.09-.08,9.16,1.83,8.22,6.2-.82,3.81-5.55,6.03-9.04,7.02l-22.62,6.38c-4.66,1.31-8.14-.07-12.54-.85-5.08-.91-10.35.55-15.47-2.09-.73-1.26-.72-3.35-2.13-4.39.17,1.58.35,3.26-.62,3.98-.66.49-2.15-.49-2.84-.61-11.9-2.09-8.35-10.91-12.48-12.25-1.02-.33-2.36.22-3.86.78ZM1117.83,430.05c.6.18,1.81,1.5,2.43,1.01.47-.37,1.72-1.57,1.61-2.44-2.4-1.56-6.26-3.97-9.34-3.59-2.59.38-4.63,3.08-6.63,4.1,2.43,2.5,4.76.4,6.49-.73,1.29.81,3.67,1.77,5.43,1.65ZM765.41,449.85l-.41,4.54c-2.99-.25.07-3.97-1.87-5.3-.46-.32-1.68.11-2.03-1.75,2.26.32,3.83.52,5.54-.51-1.39-4.08-6.94-3.31-6.83-5.79.05-1.01.98-1.88,2.4-1.5,10.8,2.91,21.79,1.21,30.9-5.34,1.13-1.81.83-5.42.91-7.34l-13.08,6.4c-7.45,3.64-15.04,1.21-22.56-2.37l.75,14.54c.03.51,2.34,1.36,2.08,1.55l-1.99,1.45-3.81,9.71c7.7,5.09,18.7,5.33,25.77-1.28-3.21.05-7.85,1.4-10.45-.74-1.32-2.35-1.67-6.17-5.31-6.26ZM827.01,432.46c2.51-5.96-9.56-7.13-14.34-3.27-1.17.94-.8,3.76-.11,5.16l14.45-1.89ZM1057.98,435.23c3.08-1.14,5.71-4.23,7.32-7.38-5.24-.24-9.14,1.82-12.96,3.05.92,2.42,3.44,5.14,5.64,4.33ZM625.54,433.71c-1.24.03-3.25.67-4.65-.65,1.36-.56,4.01-1.72,4.11-3.22.1-1.39-1.6-1.5-2.09-1.16l-1.51,1.07c-1.92,3.5-4.24,5.96-7.98,8.88,4.54,3.44,9.57,3.18,14.55,2.76-.9-2.61-.69-5.05-2.43-7.68ZM227.85,438.2c.29-4.66-2.36-6.52-5.94-7.87-.88.71-2.29,3.52-1.26,4.61,1.82,1.92,4.67,3.11,7.2,3.27ZM1068.69,438.34h12.51c-.95-2.49-1.47-4.25-2.27-5.13-.54-.59-10.56-2.62-14.02.17l11.23.22c1.29.03,1.67.99,1.75,1.6.5,3.67-7.1-2.8-9.19,3.15ZM1097.12,438.15c0-3.24-1.61-5.76-4.05-6.32-3.33-.76-6.58-.29-9.58.76l1.38,6.36c3.93,1.52,8.42,1.44,12.25-.8ZM1110.6,435.04c-3.32-1.83-6.97-3.42-11.35-3.48-.04,1.9,1.07,5.83,2.72,5.95,3.1.22,5.46-1.33,8.63-2.47ZM1155.01,457.77l24.05-15.35c5.43-3.47,11.22-5.85,15.62-11.09-8.21.84-14.27,5.07-20.9,8.81l-38.24,21.6c-.92,2.18-.02,5.96,1.36,7.35l18.12-11.33ZM1148.22,475.9c-2.6,2.21-2.59,4.19-.73,5.86l44.29-36.57,7.66-7.54c1.2-1.18,0-3.93-1.58-5.07l-17.92,11.74-21.06,13.85-19.39,11.81c2.06,3.15,4.79,5.86,8.73,5.92ZM258.46,459.14c28.95-3.52,56.28-8.73,83.83-16.4,8.63-3.3,17.01-5.18,24.95-9.5-77.21,22.48-154.39,27.69-234.13,17.51,25.02,8.48,51.67,9.98,78.22,9.6,15.93.39,30.71.12,47.13-1.22ZM1033.48,466.51c1.68,3.48.05,6.62.18,10.06.38,10.38,7.69,18.42,17.53,22.25,25.74,10.01,54.65,9.06,79.96-2.3,5.08-2.28,11.8-5.93,13.42-11.18s-4.9-10.4-7.95-12.97c-3.34,3.84-2.34,8.57-4.07,12.51-4.85,11.03-27.71,15.12-41.59,16.27-12.64,1.04-24.99-1-36.7-5.6-8.98-3.53-13.89-11.8-13.5-21.25-1.47-.21-3.02-1.64-2.6-2.05l2.2-2.1-1.42-31.11c-.07-1.47-.02-2.56-.73-3.08.11.08-9.33,2.33-14.76,5.6,5.38,4.12,9.95,7.87,14,12.92l-3.71,11.03c-.07.21-.39.76-.28.98ZM227.38,440.12l-9.83-3.21c-2.35,1.27-4.85,1.79-5.69,4.37,2.59.47,3.76-1.53,4.96-1.74,2.82-.48,9.69,7.31,10.56.57ZM996.47,463.08c-2.22.96-2.75,1.54-3.19,2.2,8.68,4.88,16.28,10.03,23.83,16.41l-.11-26.37c-.02-4.99,2.7-10.36.49-15.07-.55-1.18-2.95-.05-3.38.74l-1.62,2.92-1.38-6.64c-7.28,2.87-14.11,4.08-21.99,5.09l1.98,3.38c-2.53-1-4.15-3.4-6.88-3.08l-19.08,2.22,25.86,17.72c1.95-.65,4.27-.76,5.47.49ZM1129.07,478.13c2.05-1.86,3.68-5.01,3.64-8.1l-.35-29.73c-5.72,6.22-12.4,9.48-20.23,11.14-12.4,2.63-25.03,5.92-38.24,2.14,7.75-2.48,15.55.44,23.24-1.28l16.21-3.64c6.69-1.5,12.83-4.52,16.95-10.16l-10.97,6.21c-19.61,7.36-40.63,8.47-60.76,2.57-6.37-1.87-11.59-5.14-16.12-9.72-.28,2.59,1.13,5.22,3.15,6.55,12.63,8.26,24.92,6.12,26.47,7.99,3.09,3.73-18.9,1.85-29.67-6.69l.24,7.98c.06,1.98.7,3.16,2.54,3.68-1.11,1.08-1.93,2.23-2.5,3.28-.37.69.8,2,1.06,2.83-.52,2.9-1.44,6.08.49,8.21,2.59-.62,2.21,2.36-.41,1.22-1.34,10.02,17.65,15.3,30.37,15.85,10.76.47,21.24.88,31.76-1.1,7.95-1.49,16.56-3.3,21.88-8.12l-.13-.71c-1.59.26-3.03.85-5.07.41.86-1.56,2.2-2.16,2.34-2.98.17-.96-.87-2.29-2.27-3.67,1.31-.84,3.35-1.52,4.7-1.14,1.09.3.64,1.35.26,1.4l-2.23.31,2.7,5.19c.1.19.34.3.92.09ZM629.97,445.19c-7.29-1.24-12.58-1.24-18.75-3.97,1.26,3.31,3.78,3.85,6.61,4.71,3.98.29,8.16,2,12.14-.75ZM741.01,453.16l-2.03-11.69-18.32,7.94,20.35,3.75ZM673.7,533.99l-1.37-44.67c-6.49-.57-13.37-3.76-19.81-2.95s-11.18,7.62-17.34,10.08c-5.68,2.27-13.46,1.88-18.88-.99-6.23-3.3-10.2-13.83-7.3-20.41,1.88-4.26,7.05-10.72,4.11-15.62s-5.37-9.06-3.89-16.87c-7.02,5.42-12.43,11.86-18.22,18.78-3.13,3.74-7.42,5.29-12.16,6.77l-16.35,76.62c-5.92,34.61-8.54,68.6-10.35,104.07l28.54-21.83,46.03-35.93c1.42-10.49,5.02-20.39,11.65-28.09,4.93-5.72,10.78-6.66,17.75-6.04,4.35.38,8.15-4.76,11.18-6.97,5.65-4.12,6.61-9.03,6.4-15.94ZM1033.09,465.03c-.94-1.28-1.35-3.27-.52-5.15,3.81-8.61-5.6-10.57-12.03-17.3l-1.32,9.94c-.25,1.9.21,4.27,1.53,4.94l3.72,1.88c-1.68.13-4.44.05-4.85,1.39-.95,3.13-.28,6.35.15,9.1l8.28-.51c2.72-.17,4.24-1.7,4.64-3.93.02-.13.17-.31.39-.37ZM574.24,452.92c4.32-.54,9.7-1.22,11.56-6.95-6.41-.19-10.66,4.29-15.68,7.2,1.65.79,2.55.29,3.48.17.27-.07.51-.25.65-.42ZM1029.36,504.94l-14.98-9.35-20.29-13.27c-1.56-.11-3.88.75-5.22-.34l3.72-.95c-6.97-5.5-14.45-11.12-22.83-14.54.27-2.26-.89-2.88-2.55-3.95l-22.51-14.45c-2.85-1.83-6.01-2.8-9.45-1.65-4.34,1.45-8.57,1-13.06,1.15l-23.85.81,7.17,17.52,11.04,32.13c5.36,2.5,10.48,3.97,16.06,5.23l24.43,5.5c24.98,4.53,49.68,6.52,75.21,7.25.35-3.42.69-8.86-2.88-11.09ZM970.74,459.39c.79,1.48.76,3.11,1.67,3.46.54.21,1.65.92,1.96-.12-.4-3.15-.75-5.49,2.07-7.89l-14.46-9.04c-4.65-1.79-9.77-.39-14.82.06l22.08,14.81c0-2.28-.83-4.34-2.07-5.66-.8.31-1.95.43-2.12-.05-.15-.44.2-2.14.55-2.19,1.91-.27,3.9.25,6,2.1-.96.22-2.6,1.22-2.26,1.86l1.42,2.66ZM656.04,454.38c-1.53-2.95-2.83-5.04-4.8-6.79-13.3,1.35-25.9,2.81-39.57-.09l.99,5.73c8.7,2.41,17.46,2.58,26.6,2.08l16.78-.92ZM177.6,474.42c-19.91.42-36.54-21.56-57.84-25.02,7.05,6.68,15.1,10.66,23,15.65l21.41,13.54c4.21,2.66,8.84,4.13,13.9,3.96,1.05-2.94.62-5.7-.46-8.12ZM912.58,496.52l-9.36-29.89-8.61-17.53-14.83,1.6,3.89,10.46,12.41,29.47c5.23,2.75,10.31,5.25,16.5,5.89ZM872.94,479.19c5.54,5.78,13.77,7.48,20.33,11.3-4.03-14.31-10.57-26.88-16.54-40.23l-16.82,1.37c-.14,1.7-.14,3.76.94,5.37,4.56,6.82,6.17,16.02,12.09,22.19ZM750.03,464.69c.81-2.4,1-3.78,1.02-5.98-5.24-.87-10.09-1.82-15.02-.45-1.51-3-3.95-3.29-6.79-3.77l-10.99-1.87c-2.95-.5-5.15,2.64-6.91,4.76l11.31,1.79c5.34.84,10.4,2.23,15.4,2.06,3.85,2.47,7.98,2.14,11.99,3.45ZM860.27,462.22l-5.33-2.49.49-7.18-12.17,1.32c3.36,4.05,5.77,8.36,10.29,10.32,5.79,2.51,3.34,6.27,5.23,6.28.52,0,.9-.45,1.13-.76,1.75-2.36-3.64-3.38.36-7.48ZM783.14,468.39c7.68-2.78,11.81-8.3,17.26-12.5-7.57-1.46-14.62,5.49-17.26,12.5ZM797.9,474.66c5.17-4.17,11.18-7.44,15.41-12.46-1.41-1.42-2.26-3.87-1.17-6.04-3.21-1.45-7.37.58-10.39,2.85l-19.2,14.45,1.25,11.58c6.12-2.22,9.38-6.58,14.11-10.39ZM1016.75,492.5c.86-3.9,1.13-8.42-1.34-10.15l-37-25.9c-1.74,3.02-2.74,5.64-3.21,8.91l17.06,11.17,24.49,15.98ZM191.61,462.95c-15.76-.6-30.61-2.45-46.6-5.53,8.19,6.52,16.83,11.19,26.54,14.78,5.95,2.2,13.92-3.28,20.06-9.25ZM626.06,475.14l-.27-16.77c-3.88.54-6.34.18-9.57-.92l.61,15.75c1.25,2.42,6.64,2.85,9.23,1.94ZM640.18,467.61l21.22-8.16c-7.36-3.65-14.67-1.61-21.87-1.05l.65,9.21ZM786.36,457.55c-3.84.39-6.52,2.81-9.62,4.43-10.19,5.3-14.6.55-24.3-2.61,4.47,10.46,26.21,9.58,33.92-1.82ZM636.99,472.95l-.03-14.32-9.33.13c-.75,5.84-.38,10.91.77,16.85l8.58-2.66ZM720.08,461.33c-4.11-2.74-6.53-.52-9.91-.69l-2.43-.13c-.53-.03-.9,1.64-.33,1.98l12.67-1.16ZM278.29,484.24l6.02-22.7c-6.35,2.56-12.07,3.15-18.79,3.36l-2.13,24.88c5.21-1,10.38-2.23,14.9-5.54ZM749.39,469.04c-.17-4.76-18.64-4.05-27.83-6.55l-.3,8.14c5.19-.61,9.3,2.11,13.99,2.86,3.03.48,14.24-1.64,14.14-4.44ZM180.73,480.84l26.69-16.81c-13.18-2.58-17.45,6.06-27.63,9.29-.32,2.39-.18,4.56.94,7.53ZM250.42,503.06c-2.52.76-3.02-.19-4.65-.48l2.78,8.68,9.58,24.42c1.06,2.7,5.36,3.22,7.79,3.66l-7.07-19.45-9.58-27.46-9.98-27.03c-1.04-2.81-6.99-2.15-8.83-1.53l3.63,7.86,5.32,2.37c-1.42.52-2.54.77-2.99,1.28-.63.7-.68,1.91-.22,3.01l3.57,8.52c1.12,2.67,2.06,4.23,4.53,5.1-2.62,1.39-1.46,6.59-.31,6.29l2.7-.71c.88-.23.7,1.37-.26,3.73l3.98,1.73ZM277.41,533.29c1.65-1.84,2.67,1.07,3.3,1.81,2.92.27,7.13-1.79,8.95-4.47l-12.01-42.51c-7.56,1.42-13.19,6.77-18.32,3.72l-8.76-27.71c-2.66-.51-5.32-.4-8.36-.16l27.37,78.54c2.09-1.06,3.25-1.81,4.62-3.36-5.66-14.9-10.16-29.85-14.16-45.29,1.98-.36,3.12-.32,4.62.41-1.41,1.11-2.14,1.89-2.2,2.6-.07.84.42,1.72.71,2.67,3.93,13.06,7.03,25.94,12.57,37.85,1.28-.02,3.44-.83,3.21-1.27l-1.53-2.85ZM706.34,471.29l10.16-6.42c-4.08-1.25-7.79,1.44-11.22,1.42-1.43-1.06-3-3.74-5.45-2.68-1.28.55-3.76,2.78-1.79,4.08,1.78.25,5.13-.74,6.04.63.55.83.26,2.81-.32,3.25-.14.1-3.38-3.16-5.05-1.98-.77.54-1.09,2.63-.55,4.28s3.32,1.24,5.27.67c1.04-.31,1.66-1.86,2.91-3.24ZM658.73,473.52l29.53,4.99-.25-9.03c-6.46.58-12.26,2.02-19.08,1.19,1.47-2.55,3.86-2.28,5.47-3.52-2.57-1.57-4.58-.4-5.92,1.44-4.41-7.72-18.47-2.6-27.61,2.43-1.71,3.37-2.38,5.72-6.86,6.61-7.59,1.5-15.09,2.23-21.96-3.96-1.28,2.3.02,4.23,2,5.16,11.72,5.49,25.16,2.76,35.19-5.27,2.46-1.97,6.23-.58,9.49-.03ZM720.96,479.02c4.56-2.56,9.26-.48,9.99-2.93.49-1.64-8.7-2.76-15.2-1.41,1.44,1.28,3.37,1.34,5.64,2.04-2.25,2.98-5.22,1.34-8.23,1.03-7.17-.74-13.84.98-20.75-1.8,4.13-3.6,4.71-7.83,1.47-11.25l-7.82,2.39c2.86,1.12,4.87.21,7.24-.25-1.76,4.6-2.79,7.99-1.44,12.03,13.92,2.72,27.23,6.04,41.33,6.64,7.65.32,14.96-2.29,22.23-3.81.78-2.92-1.39-7.87-4.21-7.72-10.75.56-19.87,10.06-30.26,5.06ZM754.06,493.48c-9.11,8.18,17.31,14.21,27.77,5.74l15.5-12.55,22.18-17.07c-1.39-2.41-2.93-3.77-4.82-4.98l-20.66,16.78c-3.08,2.5-5.31,5.55-9.83,6.08-.2,2.78-.31,4.56-1.12,6.89-9.45,6.08-23.42,7.84-29.01-.88ZM261.95,465.36c-4.51,1.5-5.07.73-7.94.16l6.5,17.67,1.43-17.84ZM779.64,472.77c1.05-2,1.44-4.49,1.33-6.73-9.35,4.12-19.46,4.41-28.61-.28-.23,2.54.29,6.39,2.94,7.72,7.49,3.78,16.88,3.23,24.34-.72ZM707.93,474.1c4.76,2.84,7.99-.49,9.16-6.46-3.57,1.92-6.88,3.73-9.16,6.46ZM1020.89,495.21l10.16,7.39-.36-13.63c-.17-6.33-.38-11.94.63-18.82-4.31,1.01-8.61,2.06-8.41,2.21l-2.69-1.95c-1.7,4.34-1.01,8.53-.82,13.01,2.8.22,4.73.46,7.48-.05.12-1.69.12-2.94,1.11-4.09,1.97,2.39,1.44,5.32.56,7.61l-8.76-2.35c-.43,3.47-1.85,8.53,1.11,10.68ZM784.72,506.06l15.47-12.56,22.46-17.45c.94-.73.99-2.21.53-2.97-.38-.63-1.83-1.14-2.86-.35l-38.44,29.49c-8.49,6.51-20.8,3.84-30.19-.35-.15,1.35-.41,6.17,1.83,7.28,10.73,5.34,21.77,4.56,31.19-3.09ZM754.19,484.42l-22.02,4.17-66.65-10.76-11.36-2.14c-.28,2.41-.3,4.84.86,7.07l69.39,12.52c9.17,1.65,17.39-.47,26.21-3.37,3.2-1.05,6.14-5.22,3.56-7.49ZM759.59,494.74c.78,1.94,5,2.07,6.53,1.82.08-2.74-.38-5,.61-7.13l.92,7c3.91.47,10.38-1.01,11.9-5.31,1.77-5-.3-10.74-.62-15.51-3.88,2.67-7.13,4.27-11.94,3.75l-.77,9.67c-.19.4-.53.52-.73.52l-.4-10.02c-2.12-1.12-4.2-1.63-6.83-2,.42,5.73-.95,11.55,1.33,17.2ZM651.75,481.59c.29-1.48,0-3.11-1.07-5.52l-9.24,6.6c-.72,1.14,1.32,4.17,2.48,4.5.83.24,7.42-3.47,7.83-5.59ZM635.73,490.51c-.27-2.77-.28-4.65-1.06-6.31-8.6,1.07-16.22.33-23.3-3.63-.2,2.82.24,5.08,1.13,7.9,7.7,2.22,15.58,2.56,23.23,2.04ZM1057.77,493.69c21.78,7.08,45.22,5.05,65.91-3.48,3.46-1.43,6.25-4.16,6.67-7.95l-17.34,7.13c-22.39,4.86-47.5,5.23-67.69-6,1.93,5.37,6.51,8.38,12.44,10.31ZM1128.86,507.87c-.58-.04-2.04-1.75-1.64-2.21,5.55-6.39,19.12-5.59,19.06-14.76-13.03,9.63-27.16,14.61-42.83,17.03-17.47,1.95-34.92.75-51.48-5.06-8.22-2.89-13.98-8.55-18.57-15.67l2.53,27.52c2.93,2.64,8.31,1.77,11.44.48,26.52,1.51,53.06-1.01,78.59-4.2.45-1.45,1.88-2.78,2.48-2.39.43.28,1.2,1.83,1.93,1.71l13.2-2.15c-9.19-7.11-13.49-.22-14.71-.31ZM837.94,569.18l-3.57-57.64-5.29,2.16,3.45-4.16-20.63-20.97c-1.86,1.07-3.3,2.17-5.17,4.2l20.99,22.43,3.11,41.86,1.05,23.91c5.32-2.18,6.4-6.37,6.07-11.81ZM687.36,542.2l-.14-50.41-12.14-2.07,1.12,51.52,11.16.95ZM697.66,530.04l.44-36.4c.01-.92-3.65-.29-3.32,1.81-1.94-1.44-2.99-2.83-5.48-3.05-.09,16.61-.52,32.16,1.42,49.07,2.72-1.47,6.24-3.76,6.78-6.67-.56-1.36.14-2.68.17-4.76ZM1186.42,522.98l33.44,7.99c17.52,4.19,17.1,6.92,33.35-9.41l17.98-18.06c3.6-3.61,7.99-6.09,10.44-11.31-6.04,1.24-9.04,5.99-13.22,9.56l-25.81,22.06-6.59,7.08c-.56-1.3-.76-3.12-.03-3.55l4.05-2.4c-10.19-2.12-20.55-7.25-31.68-7.2-7.97.04-15.17,3.71-21.94,5.24ZM717.55,499.08c1.82.34,3.42-1.2,3.26-2.32-6.94-.09-13.07-1.26-19.01-2.84-.51-.07-.73.71-.77,2.1-.02.74.6,2.46,1.44.22l15.07,2.84ZM829.23,583.6l-.51-31.86c-.79-.24-2.33-1.03-2.46-1.66-.09-.47,1.72-1.35,1.7-1.85l-.67-15.77c-.21-4.95,1.09-11.84-2.35-15.67l-20.43-22.76-9.34,7.14c9.65,8.05,18.15,13.78,19.05,27.33l1.79,26.99.82,28.23c3.93,1.89,8.49,1.9,12.39-.14ZM708.67,503.64c13.03,3.33,26.1,4.3,39.04,3.91,2.21-3.68,1.01-6.69,1.15-10.69-1.28-.59-3.34-.58-5.66-.1l-.04,7.49-42.6-5.64c1.77,3.29,4.93,4.21,8.11,5.02ZM1247.08,517.38c7.39-7.25,16.1-12.78,21.97-21.22-19.11,7.94-36.45,13.97-55.23,18.82,8.03,3.69,15.48,5.26,23.4,6.61,4.2.72,7.13-1.51,9.87-4.2ZM742.49,502.38c-.93-3-.54-3.62-.59-4.87l-11.96,2.46c4.09,2.99,8.83,3.02,12.55,2.42ZM1145.37,503.46c8.49,1.96,15.27,4.03,23.3,2.01-6.85-4.26-14.12-6.79-22.12-6.38l-7.64,2.79c3.45,3.79,7.77,6.88,12.47,5.18-2.6-.98-5.23-1.3-6.01-3.6ZM750.98,524.28c-13.13.43-25.87-1.77-38.72-4.61-7.23-1.6-3.07-11.64-11.46-17.37-.04,8.46-1.46,16.47.23,24.11,4.96,2.85,10.35-.36,15.22.32l35.73,4.93-1-7.38ZM812.19,544.39l-1.4-20.52c-.46-6.68-11.41-16.24-18.98-20.44-.97,7.59-.46,14.03-.2,21.02l.52,14.08c7.37.45,13.75,1.1,20.07,5.87ZM752.3,520.46c-.57-4.24-1.03-7.69-2.63-11.58-3.12,3-5.71,2.56-8.84,2.17l-31.45-3.9c-.65,3.31-.43,7.63,2.25,8.87,5.83,2.71,12.37,2.29,18.62,3.42,7.45,1.35,14.35,1.95,22.05,1.01ZM785.8,537.54c.06,1.18,2.89,1.07,2.93.33.63-10.12.72-20.18-1.51-31.14-3.44,4.71-2.51,10.51-2.22,15.84l.8,14.97ZM918.25,663.32l3.93,52.16.64,20.32,11.26,4.44-1.45-33.08c-2.31-52.5-8.08-104.27-19.25-155.57l-9.3-34.44-18.23-5.5,6.27,15.03,9.04,34.97c.33,1.26.07,2.69,1.33,3.27.7.32,2.12-.09,3.06,1.21-1.39.3-2.68.53-3.24,1.04-.44.4.92,1.65,1.06,2.53l13.48,82.68c.32,1.95-.14,3.54,2.19,4.54-1.84,1.94-.96,3.86-.77,6.39ZM754.84,523.51c-1.65,2.32-.5,6.39-.36,8.83l28.73,5.32-1.01-24.96-6,1.23c-.07.33-.18.74-.07,1.36,1.58-.07,3.31-1.32,5.36,0-5.36,3.49-11.34,4.36-17.19,2.7-2.79,1.68-7.31,2.5-9.46,5.53ZM761.29,516.1c-2.43-1.49-4.74-2.82-8.05-2.7-.46,2.57-.09,4.51.64,6.6l7.41-3.9ZM944.84,733.95l-1.1-16.73-2.17-2.08,1.65-1.71-1.97-44.92-7.72-75.2-7.7-47.72-5.18-23.42-13.59-3.98,13.4,57.36c2.64-1.5,4.16-2.83,6.99-3.12-1.73,2.85-4.23,3.13-6.87,4.24,6.42,36.24,11.18,71.97,12.88,108.84l2.49,54.06c.07,1.58.98,3.09,1.79,3.66,2.88-2.48,7.42-4.71,7.12-9.27ZM1046.21,604.44l-8.47-64.61-18.21-.77c-32.03-4.17-63.4-9.04-95.49-16.42,9.93,48,17.05,95.68,20.08,144.78l2.43,44.87,84.85-85.4c3.21-3.23,4.99-6.52,6.57-10.66,1.42-3.71,9.08-5.46,8.25-11.78ZM759.78,570.48c2.7.49,2.91.9,4.91-.55l37.48-27.07-17.89-2.56-66.83-10.96c-15.8,7.1-29.18,16.38-42.57,26.71l22.35,3.56c2.74.25,4.91-.22,6.72-2.49.65,4.64,3.3,3.86,6.24,4.39l49.59,8.96ZM1075.12,536.23l12.09-.95,14.09-.84,8.87-1.02c4.81.54,9.04-.06,13.16-1.35-4.25-1.85-8.17.14-12.01.35l-17.04.9-12.03.94-13.99,1.01-35.52.34c-.36.15-.58.41-.55.87l42.94-.26ZM271.76,546.22l18.51-6.67c1.34-.48,1.6-3.47.68-5.24l-20.02,9.15c-.49.22.26,2.68.82,2.77ZM1132.64,534.42l-45.4,4.18c-3.09.1-6.22-.53-9.14,1.63,16.65,2.29,39.88,3.14,54.54-5.8ZM1129.63,578.49c-3.45.61-5.41,1.98-7.94,3.96-.87-.31-.89-2.77.3-2.97,7.36-1.27,9.59-7.1,10.87-14.87l-5.03,2.15c-.22-.32-.52-.58-.73-.73l5.78-3.69,2.67-12.61,3.52-14.42-4.31,2.77-12.07,5.19-9.93,54.67-7.64,36.85,13.06-5.25,6.4-28.84c-2.29-.51-3.03.8-4.05,1.95-.09-2.13.73-3.34,2.04-5.12l2.37,1.88,4.68-20.9ZM1060.87,614.82l-1.1-12.94-7.75-62.09-10.74-.04c-.5,3.82,1.33,7.04,1.72,10.88l6.17,59.47,11.7,4.73ZM1067.39,585.5l-5.35-43.62c-2.39-.93-4.74-1.29-7-.46-.57,6.82,1.05,12.76,1.95,19.23l1.13,8.05,5.38,47.75c9.44-1.15,5.57-17.22,3.89-30.95ZM1084.54,567.58l-6.87-20.44c-1.77-5.26-6.67-5.13-13.73-5.4,1.67,4.57,2.07,8.86,2.65,13.68l3.74,31.06c4.76-1.49,8.59-1.3,13.57,1.43.76-6.24,2.93-13.49.63-20.34ZM685.99,543.97c-4.61-1.02-7.49-1.8-11.21-.98,1.9,3.11,4.53,4.09,7.21,4.79l4-3.81ZM1081.61,626.39l20.88,9.66,5.55-28.77,6.66-34.3,5.68-30.04-8.89,1.65-1.71,14.52c-.94,8-2.08,15.62-4.69,23.25-6.2-.32-11.25-2.3-17.3-5.28l-6.19,49.31ZM765.57,667.66l22.86-17c-7.63-.6-12.25-5.36-14.18-12.38-5.33-19.36-.83-40.74,12.73-55.89,3.65-3.07,10.36-1.7,14.26-1.2l10.95,1.4-1.24-33.91-4.09.99c-.84.2-.9,2.41-.81,4.24l-1.77-2.11-20.13,13.95c4.79-5.85,11.08-9.04,16.85-13.47,2.69-2.06,4-5.08,8.01-6.76-3.49-2.78-5.92-1.17-8.85.96l-27.2,19.79c-2.14,1.55-3.21,3.45-6.44,3.64-.8.05-2.06,1.4-2.03,2.08.01.4,3.79,4.44,4.23,4.21l3.61-1.87c-.5,1.76-1.63,2.25-2.94,3.36,2.35,7.17,1.48,14.26,1.63,21.84l.64,33.51c.19,10.18,2.1,20.03-.16,30.44l-2.18-26.88c-3.65,9.56,2.75,20.43-3.74,31.04ZM1107.89,545.11c-2.41-.43-4.53-.44-6.48.22l2.7,16.2c.09.54-2.5.71-2.67-.2l-2.8-14.2c-.27-1.36-1.41-1.82-2.88-1.66-2.59.28-.34,1.8-.37,4.6-.01.92-4.95-1.28-4.89-2.1.03-.5.65-1.31,1.73-2.07l-12.21-1.94,4.35,14.21c1.67-.13,2.78.34,3.95,1.54l3.7-3.33c.04,3.2-1.98,6.91-5.53,5.5-1.78,9.14,6.59,11.11,17.46,13.82-.76-4.61-1.34-8.32-.23-12.72,2.23,1.17,1.49,2.85,2.08,4.87l2.07-22.73ZM668.65,559.14c1.33-4.17,5.46-6.11,8.68-8.63-1.09-2.33-3.12-2.78-5.12-1.08l-10.79,9.18c2.84.81,4.62.6,7.23.52ZM744.93,586.33c9.95,10.12,15.42,23.29,14.89,36.96-.78,20.09-16.18,32.73-35.63,37.11,9.09,3.13,16.67,3.41,25.4,4.91,4.16.71,9.94,2.84,13.78.33,3-1.96,2.99-7.66,2.89-11.06l-1.33-46.04-.94-20.96c-.15-3.35-3.09-6.36-4.16-8.8-4.53,2.56-6.87,6.4-5.14,7.94.3.27,1.5-.97,1.91-.81,1.31.5.85,2.42-.13,3.35-1.03.98-1.85,1.34-2.93.44-3.02-2.5.02-7.19,4.14-12.32l-16.11-3.26-59.6-10.27c-1.02-.18.95-3.33,1.74-2.44.14.15,8.38,3.61,9.15-.09l-20.61-2.63-.04,1.55c2.64.6,5.49-.55,8.61,1.08-2.77,2.85-6.34,1.65-10,.78-2.15,7.5-.27,14.83.13,22.46l1.98,37.94c.45,8.6-.4,16.8,2.2,25.09,1.78-.6,3.45-2.4,3.2-3.6l-.94-4.53c2.18,2.18,3.27,4.23,4.86,7.07-1.87-.34-3.61,0-4.58.67-.67.46-1.82,2.38-1.19,2.9,4.26,2.94,9.44,4.12,14.43,4.77l11.43,1.5c-16.46-7.91-27.17-26.57-27.58-44.67-.11-4.66.81-8.49-.01-13.31-1.26-7.44.55-16.24,6.6-20.89-3.82,6.72-6.89,13.44-4.54,21.21,6.15-8.98,12.66-18.93,23.16-23.31,15.52-6.46,33.16-1.1,44.97,10.92ZM640.41,609.97c-.9-3.72.14-4.56.67-6.19l-9.03-2.73c3-1.19,6.15-.66,9.23,1.55l1.43-12.51c1.28-11.17,6.21-20.83,15.21-28.9-4.02-1.92-9.73-2.31-13.48.53-14.34,10.87-19.6,37-11.23,53.78,2.75,5.52,7.63,8.09,14.17,7.95-2.68-5.35-3.89-10.03-5.46-16.29-.48,1.01-.81,2.02-1.5,2.79ZM663.96,627.09c-6.65-10.02-8.17-19.79-6.97-30.58.9-8.18,2.31-15.56,6.65-22.58,2.13-3.45,3.41-7.35,4.29-11.1-8.07-3.59-10.68,1.37-16.34,9.43,2.95.77,4.49.05,6.95-1.07.77,1.14.04,2.01-.71,2.57-1.58,1.17-4.93-.98-7.84.54-4.15,11.17-7.19,22.97-5,34.69,2.42,12.97,6.27,16.03,18.98,18.1ZM730.18,569.92c.27-3.69-2.28-3.2-3.85-3.44l-22.87-3.54c0,.38-.14,1.2-.29,1.64l27.02,5.34ZM769.42,628.13l-.61-19.19c-2.8-16.27,4.85-30.39-8.37-35.72-6.75-2.72-19.97-3.65-20.26-3.25-.24.33.2,1.68.87,2.05,6.01.91,12.85.99,18.24,4.46,5.93,3.82,7.48,10.81,7.61,17.46l.76,40.26c2.98-1.24,1.84-3.66,1.77-6.07ZM1105.65,579.34l-17.76-6.47c3.75,6.08,11.2,8.26,17.76,6.47ZM669,626.39c.7-10.17.27-18.7-.85-27.8l-1.24-23.5c-2.72,2.65-4.27,6.04-5.14,10.04-3.07,14.01-3.86,34.45,7.23,41.26ZM748.47,614.84c2.97,11.38,1,21.98-3.54,33.15,12.68-9.94,14.58-25.74,9.93-40.08-6.01-18.49-21.73-31.93-41.57-32.45-6.8-.18-13.74.72-18.25,6.11,23.47-7.92,45.49,10.19,53.44,33.28ZM830.78,594.26l20.19-15.71c-3.15-1.82-5.63-2.29-8.91-3.15-4.08,5.65-9.36,9.64-16,11.73,1.54,3.14,2.99,5.42,4.72,7.13ZM833.36,619.59l19.74-15.38c1.87-7.95.97-15.89-.28-23.63l-22.01,16.6c3.28,7.64,3.39,14.61,2.54,22.42ZM736.65,651.48c6.41-4.98,9.42-12.48,10.28-20.27,2.28-20.61-10.66-40.33-30.26-46.93-6.08-2.05-12.42-2.72-18.52-.7-10.33,3.43-18.69,12.75-19.79,23.95-1.88,19.07,8.27,36.98,24.8,45.98,10.61,5.78,23.67,5.6,33.5-2.04ZM788.59,647.16c-3.11-8.66-5.43-16.05-4.95-24.33.85-14.69,5.02-28.43,14.72-39.58-6.23-.92-10.94,1.84-13.94,6.53-9.71,15.19-11.88,33.56-6.23,50.68,1.49,4.51,5.34,7.42,10.4,6.69ZM810.1,651.2c-12.57-12.53-9.43-33.08-3.83-48.5,2.57-7.08,6.86-11.9,14.07-15.76-5.84-.57-13.52-4.66-19.18-1.35-6.66,3.91-9.92,12.64-12.04,19.74-3.6,12.05-3.2,24.4-.1,36.32,1,3.86,3.67,6.35,6.85,7.79l.48-2.3c.16-.77.68-.6.84-.19,1.36,3.53,6.62,3.2,12.9,4.25ZM1080.73,609.82c.87-5.77,2.9-12.05.97-17.99-.92-2.84-6.74-2.64-9.9-2.21-3.25,8.03,4.93,10.57,8.94,20.21ZM817.56,600.03c2.17-3.45,5.67-4.82,10.28-4.72-.86-1.41-3.25-4.74-5.66-4.51-12.78,1.19-23.63,30.83-13.9,52.54,1.39,3.11,3.18,6.09,6.98,5.7,3.37-.35,7.14-2.86,7.95-6.21-15.36,4.13-16.98-24.79-5.66-42.81ZM551.94,653.23c2.44,3.39,4.4,4.84,7.07,5.34l57.92-46.21c6.89-5.5,11.07-4.67,9.06-17.01l-24.08,18.69c1.65,1.03,2.67,1.12,3.53,2.61l-6.11-1.12-47.39,37.69ZM824.64,598.66c-5.94-.65-15.38,19.38-9.72,36.98.89,2.76,3.41,4.63,5.79,4.57,10.84-.25,14.81-40.37,3.93-41.55ZM1057.76,622.89c1.95,3.38-.09,7.94-.42,11.78,3.96-3.2,2.59-8.14,2.58-13.46,2.88,2.17,2.16,5.1,2.58,8.38l14.52-17.27c1.13-3.41-2.69-7.55-4.49-9.83l.07,8.61c0,.75-5.38,9.74-11.12,7.23l-14.3-6.26c-2.37,1.13-4.34,2.61-6.06,4.47,6.27-.29,13.44.83,16.63,6.34ZM562.21,666.86l8.28-7.17,58.21-46.64c0-1.96-.13-3.6-.87-5.79l-29.63,23.24-34.14,26.86c-1.71,1.34-3.76,1.97-3.84,3.82-.08,2.01.29,4.67,1.99,5.66ZM949.08,713.58c-1.61,1.62-3.07,4.23-2.54,5.59,1.23,3.13,3.91,4.96,7.09,7.02l55.06-56.14,46.54-46.99c-4.14-3.18-10.47-6.36-14.1-2.69l-14.51,14.67c3.31.99,5.27,1.41,5.31,3.82l-5.25-2.29c-2-.87-2.04.77-3.37,2.11l-74.23,74.9ZM956.25,733.72l55.63-56.5,43.5-44.41c.92-2.03.84-5.08.48-7.48l-17.71,17.18-33.89,35.12-46.09,46.81c-2.67,2.72-4.6,6-1.92,9.28ZM1098.46,642.29c1.15.33,2.83-3.51,1.42-4.19l-18.09-8.75c-1.22,1.45-1.08,4.68,1.03,5.66l15.65,7.29ZM1102.3,643.43l7.59-3.23c3.54-1.5,7.38-3.35,7.61-7.73l-14.99,6.25c-.45,1.79-.57,2.94-.2,4.71ZM532,675.6c3.59,4.68,5.04,7.95,6.49,13.33l19.29-15.96c4.14-4.81.05-12.52-5.19-14.59-1.59,3.21-1,6.25-.89,9.15.13,3.17-2.91,4.69-4.75,6.67-6.48,6.98-8.14.53-14.95,1.41ZM522.71,673.6l-.5.47c-3.42.43-6.48,1.69-9.91,3.91l1.98,2.63c-2.45-.61-3.94-1.64-5.72-.34-1.28.93-3.18,1.81-3.45,4.3,3.84-.51,5.98,1.12,7.67,3.97.64-1.79,1.27-2.95,3.02-2.49-4.26,5.48,5.43,7.29,2.45,17.78,5.59-6.35-2.57-12.8-.72-14.33,2.64-2.18,4.58,3.92,5.53,11.66l8.84-3.98c5.99-4.83,2.35-16.74-1.98-18.95-3.84-1.97-9.29,4.76-11.39.11,2.3-1.43,4.09-1.6,6.78-1.92l-2.6-2.82ZM511.4,696.58c-1.76-2.03-2.83-3.01-2.58-5.07-2.39.42-4.23,2.43-7.42,1.1,3.43-1.42,5.43-2.39,6.25-5.67.24-.95-1.72-1.77-2.93-1.55-2,.36-6.07,7.62-2.91,11.28,3.62-5.63,6.72,3.26,9.59-.09ZM907.25,774.41c-2.15-1.9-4.64-3.53-3.59-7.12,1.04,1.01.62,2.64,3.26,3.63-1.03-3.23.95-4.57,3.32-5.95-3.23-.56-5.81,3.35-8.51.52-.73-.76-.79-2.92.3-2.9,1.73.23,2.09,2.37,2.59,3.08,1.54-2.6,3.04-3.07,5.73-3.48-1.36-.96-2.82-.82-4.54-1.12-1.06-2.59-1.61-4.6-1.28-7.4,10.19-.46,19.34,7.07,18.53,17.89,2.13-.58,2.74-2.32,2.93-4.61,1.69-1.65,3.5.31,1.3,2.33,2.14.98,5.2-.93,6.19-3.5,2.25-5.87-.17-11.34-2.96-17.07,3.52-1.01,4.1,2.01,5.41,3.91.31-1.64-.39-3.23,1.21-4.24l-.52,9.33,11.9-11.85c3.32-3.31,5.88-6.36,5.25-10.87-.53-3.82-2.98-7.42-6.7-9.28,1.07,5.56,2.15,9.42-.87,13.17-2,2.48-5.91,7.5-9.9,5.59l-8.81-4.21c-4.57-2.18-9.32-2.08-13.45,1.15,14.76-1.2,18.7,6.34,14.56,5.85-1.22-.14-10.56-7.48-16.42-1.85l-9.62,9.25c.95,2.46-.15,3.87-1.39,5.83-3.26,5.17,1.63,12.28,5.28,14.9l.81-.99ZM907.64,776.26c3.78,2.71,10.06,1.44,12.02-3.21,2.58-6.13-1.04-12.42-6.58-15.33-2.6-1.36-5-1.74-7.08.77,5.15-.59,8.49.92,10.91,4.81,1.82,2.93,3.04,7.74.09,10.97-2.45,2.69-6.35,1.43-9.18,1.18l-.19.8Z"/>
        <g>
          <path d="M1146.28,313.69l-11.14-.85-36.94-.04-14.04.88-36.38,3.97c-.04-.1-.33-.46-.61-.79l34.05-4.15,8.08-1.04,49.84.1,11.13,1.01,10.84,1.05,28.58,3.68c.31.04.67.44.56.95l-43.97-4.79Z"/>
          <path d="M1077.6,328.7l-27.79,2.94c-.15-.12-.47-.41-.65-.77l26.03-3.21,8.3-.78,21.17-.84,25.59-.73,14.04,1.92-55.98.55-10.71.92Z"/>
          <path d="M1170.68,345.63l-23.42-2.95-8.1-.94-45.01-.62,17.12-1.32,15.94-.02,14.08.95,9.93,1.01,20.09,3.05c-.34.5-.59.78-.61.84Z"/>
          <path d="M1130.27,355.69l-41.73.14-16.46,1.53c2.93-2.11,6.69-1.74,10.07-1.97l15.1-1.02c7.86-.53,15.14-1.56,23.01.06l12.81.27,12.26,1.13c-4.88,2.1-9.89-.17-15.07-.15Z"/>
          <path d="M1193.34,334.34l-32.13-4.91-15.08-1.26c4.06-1.04,8.45-.94,12.85-.31,11.84,1.7,23.22,3.08,34.36,6.48Z"/>
          <path d="M1066.32,370.89l-21.9,4.41c6.55-2.78,13.99-4.78,21.9-4.41Z"/>
          <rect x="1263.53" y="329.16" width="1.79" height="19.45" transform="translate(395.8445 1318.2666) rotate(-63.4349)"/>
          <path d="M1042.29,363.22l-18.43,4.47c-.37.09-1.12.04-1.58-.58l18.39-4.66c.49-.12,1.19-.1,1.62.78Z"/>
          <path d="M1366.5,390.23c-.79,4.96.51,9.49-2.26,13.47l.94-21.38c2.7,2.23,1.85,4.64,1.33,7.9Z"/>
          <path d="M1331.25,329.06c-2.64-.35-7.14.12-8.01-2.71-.31-1.35,3.38-2.71,4.9-1.3,1.06.98,3.24,2,3.11,4.02Z"/>
          <g>
            <path d="M792.05,450.07l-15.96,1.23-.74-2.23c-.15-.46.09-1.49.31-1.33l1.96,1.42,14.44.92Z"/>
            <path d="M1151.1,391.08c1.74-.86,3.25-2.28,3.12-4.63l-6.67,1.54c2.89-3.68,6.92-2.96,10.72-3.37-.65,1.12-1.51,1.19-2.98,1.33.2,1.6.53,2.76.07,3.51-.85,1.39-2.14,2.99-4.26,1.62Z"/>
          </g>
          <path d="M912.51,407.71c-1.25,2.53-1.09,4.93-1.42,7.9-3.84-1.85-3.39-6.31-.94-9.52-2.25-1.94-5.74-2.36-6.78-6l21.93,14.85-.72.81-12.07-8.04Z"/>
          <path d="M1002.29,463.35c.98.29,2.3,2.17,1.48,2.22-2.21.13-3.18-.72-4.07-1.18-.71-.37-.45-2.66.18-3.76,1.54-.36,4.09-.91,6.72.37-1.45.47-3.71.66-4.32,2.35Z"/>
          <path d="M1227.02,526.54c-3.34-1.12-5.67-1.86-8.6,1.42-.46-1.88-.63-2.15-1.75-3.84,3.73-.08,7.8-1.47,10.35,2.42Z"/>
          <g>
            <path d="M1101.11,474.22c-6.29.56-12.53.55-18.95-.19l17.99-1.33c4.69-.35,9.4-.35,14.12.35l-13.16,1.16Z"/>
            <path d="M1126.88,463.93c.21,1.9-1.45,4.22-2.6,5.85-.07-3.84.6-6.8-1.84-9.84,1.23-.83,2.65-1.72,5.05-1.22l-1.77,1.86c-.6.63-.26,1.9,1.17,3.34Z"/>
          </g>
        </g>
      </g>
      <g>
        <path d="M318.72,303.39c-3.38,1.09-6.93-.68-10.56-.68h-43.88c-3.83,0-7.62,2.03-11.09.37,6.42-2.08,12.74-1,19.02-1.74,8.28-.98,15.82-1.04,24.09-.11,7.77.87,15.58-.05,22.9,1.95.18.14.35.16.54.18,9.62.91,19.37,2.4,28.61,6.03l-29.15-5.16c-.05-.44-.28-.58-.48-.84Z"/>
        <path d="M251.62,266.7l-31.79,4.03c-.35.04-1.13.01-1.56-.71l29.89-4.37,8.12-.87,20.42-.26c.41.19.53.58.53.75l-16.95.48c-2.71.08-5.3.53-8.68.96Z"/>
        <polygon points="300.21 275.77 316.3 277.11 284.2 277.44 284.24 275.72 300.21 275.77"/>
        <path d="M332.07,292.01c-5.1,1.42-13.59-1.12-20.94-1.21l-25.4-.32c-.37-.15-.57-.43-.54-.83l29.72.25,17.17,2.12Z"/>
        <path d="M252.8,280.46c-5.18.72-9.01,2.06-13.66.49l10.05-1.28c5.36-.69,10.15,0,15.65-.76-3.46,3.51-7.98.99-12.04,1.56Z"/>
        <path d="M382.04,306.29l-18.96-6.51c7.23.07,13.37,3.48,18.96,6.51Z"/>
        <path d="M217.99,284.82l-39.55,8.49c12.2-3.89,25.06-7.5,39.55-8.49Z"/>
        <path d="M396.37,277.35c-6.73-.39-12.33-2.69-18.3-4.51,6.74-.01,12.48,2.2,18.3,4.51Z"/>
        <path d="M174.23,280.8c-5.53,2.09-10.34,4.37-16.18,4.47,5.24-2.45,10.53-4.42,16.18-4.47Z"/>
        <path d="M270.32,383c-7.05.25-14.44,2.11-20.17,1,6.53-1.19,12.94-2.28,20.17-1Z"/>
        <path d="M502.46,341.55c-.27-4.44-.69-9.01.24-14.1l1.59,13.56c-.42.62-1.23.74-1.83.54Z"/>
      </g>
    </g>
    <g>
      <path d="M688.45,437.68c1.72-.28,3.65-.33,5.7-.03.62,4.28-.19,8.09-1.9,11.87-3.79,8.39-12.87,11.29-21.05,7.42-.91-.43-3.26.66-3.99.04-1.65-1.41-2.57-12.24-4.6-4.42-3.36-4.19-7.01-9.55-6.01-15.28,2.7,4.15,1.54,9.03,6.11,11.51-4.24-8.24-3.7-15.56.96-23.23-4.2,1.65-3.32,5.74-5.84,9.71-.66-7.75,5.44-16.6,14.18-17.04,9.83-.5,17.6,7.65,21.19,16.06-1.48,1.5-2.95,1.99-4.9,2.11-4.21-8.47-11.1-13.95-18.21-9.87-3.63,2.08-6.01,7.64-5.23,11.85,1.65,8.89,10.25,13.64,18.92,13.16-.03.91-.34,2,.1,2.05.62.07,1.83-.48,3.06-1.36-1.07-.76-1.8-1.76-1.28-2.66.83-1.44,2.03-2.75,3.12-2.45.82,2.32,2.1.86,2.38-.87-1.37-2.57-2.98-4.28-2.73-8.57Z"/>
      <path d="M680.09,445.42c-.51.49-2.01.07-2.07-.39-.08-.61.38-1.74,1.28-2.99-1.83-.77-3.67-.49-5.89-.5.49,1.65.91,2.3.72,3.95-2.44-1.48-4.38-3.26-5.21-5.29-.93-2.29-.22-5.58,1.71-7.24,4.13-3.56,8.83-2.55,12.64.93,3,2.74,3.66,8.09,1.44,12.14l-1.05-8.67c-1.35,3.13-1.32,5.89-3.58,8.06Z"/>
      <path d="M701.37,431.96l-.54,17.76c-1.46-6.76.32-13.21-1.87-20.05,1.21-.2,2.45,1.03,2.41,2.29Z"/>
      <g>
        <path d="M828.35,275.17l-26.76,21.51c2.23-4.6,6.01-6.69,9.37-9.39l15.83-12.7c.49-.4,1.42.02,1.57.58Z"/>
        <path d="M747.88,274.74l-13.9,13.07-.76-.78,13.57-13,11.69-10.19,11.43-9.56c-2.06,4.67-6.55,7.19-10.39,10.48l-11.64,9.98Z"/>
        <path d="M793.81,303.61l-18.63,16.07c1.33-4.89,5.75-7.02,9.22-9.87l9.13-7.52c.54.25.86.83.28,1.32Z"/>
        <rect x="716.03" y="294.33" width="18.38" height="1.41" transform="translate(3.79 599.22) rotate(-45)"/>
        <path d="M887.62,270.33c-1.43-3.56-3.48-7.35-1.67-11.28,1.44-3.11,6.58-6.79,9.67-6.97,3.91,2.05,4.24,8.38,1.65,11.34-2.8,3.19-5.5,5.18-9.65,6.91ZM895.55,254.81c-5.44,1.28-8.95,6.54-6.28,12.2,8.42-4.87,9.04-12.85,6.28-12.2Z"/>
        <path d="M907.05,268.26l-16.36,16.29c.58,1.89-.2,0-.87-1.35,8.24-8.78,16.61-16.76,26.2-24.15-1.66,4.56-6.02,6.27-8.97,9.21Z"/>
        <path d="M875.32,194.15l-15.74,11.48c-.37-.37-.43-.76.09-1.16l14.1-10.89c.48-.37,1.38-.01,1.55.57Z"/>
        <path d="M748.39,352.4c-2.07-4.37-6.69-5.07-10.74-6.43-6.97-2.33-13.82-4.13-21.36-2.36l-3.24,4.68c-.87-1.58-1.59-2.58-3.21-4.25l8.78-2.33-22.85-7.52-46.03-7.55c-.15-.1-.78-.58-.45-1.4l49.15,8.27c12.42,3.25,23.46,7.26,36.44,8.46,16.74,1.55,21.31,17.75,19.38,34.46-.63,5.48-4.45,9.38-9.93,10.28s-11.39,2.59-17.04,2.22c-4.5-.29-8.25,1.93-12.2,2-20.43.37-39.75-3.25-59.88-6.36l-75.3-11.63-8.2-5.67c-11.17-3.5-21.48-8.04-29.45-16.96-2.87-8.95-4.53-18.56-3.42-27.98.21-3.91,2.31-6.21,6.43-6.23,2.24,0,5.51.88,7.67.2,6.33-2,11.87-1.8,18.32-.97l16.98,2.19,50.19,6.19c-3.94,2.02-8.04.52-12.33.02l-53.95-6.25c-5.52-.64-10.72-2.48-16.39.37,4.28,1.59,7.32,4.01,9.13,8.09,5.62,12.64,7.33,26.27,7.51,39.98,6.98,5.01,14.66,6.26,22.66,7.43-.79-2.38-1.97-4.08-1.49-6.9l3.07,6.92c17.47,4.02,34.79,5.8,52.57,8.22l51.01,6.96c4.77.65,9.22,1.6,14.05.73-1.65-2.57-4.42-3.24-6.69-5.19-5.25-12.66-7.19-25.79-8.65-39.49-.25-2.39-.94-5.1,1.74-6.76.99,15.03,2.77,29.29,8.07,43.27,1.57,4.15,7.08,6.14,11.24,5.76l22.47-2.09c12.23-1.14,12-19.63,5.95-32.39ZM568.19,347.82c-8.68,5.02-18.36,1.07-21.75-7.48-2.76-6.95-2.12-14.85,3.78-20.41-2.57-.79-5.75-.7-8.42,1.4-1.8,9.85-.34,19.78,3.56,29,7.02,7.15,15.84,11.08,24.92,14.01-.03-6.57-.91-11.32-2.09-16.52ZM556.92,343.47c-4.46-1.56-6.57-5.46-7.08-9.09s.26-7.33,3.36-9.88c1.56-1.29,4.01-.86,5.99-1.3-1.41-.91-5.82-2.12-7.71-.34-6.72,6.34-4.58,18.79,3.29,22.78,3.34,1.7,5.9,1.92,8.49.48,2.12-1.18,4.54-3.28,3.46-6.1-2.99,2.8-6.04,4.77-9.8,3.45ZM554.5,336.03c.43-3.7.95-7.43,4.59-9.19-3.89-.59-5.23,1.99-5.7,3.62-.61,2.12-.29,4.54.24,6.26.17-.28.52-.58.86-.68ZM554.05,337.14c.73,2.06,2.41,3.49,4.71,3.7,2.04.19,5.14-.88,4.08-3.72-2.65,1.86-4.67,2.85-5.97.79,2.73-.7,4.9-1.89,5.15-3.97.18-1.53-1.16-4.18-2.85-5.73l-4.33,8.05-.79.88Z"/>
        <path d="M733.06,372.96c4.28,1.66,8.53,1.02,11.46-1.43,2.62-2.19,3.3-5.84,4.42-10.67,3.87,5.79-.24,13.45-6.85,15.5-8.14,2.52-15.29-1.33-19.11-8.61-3.15-6.01-4.09-12.8-.11-18.48,2.57-3.67,6.68-5.54,10.52-3.05-4.43.41-7.79,2.29-9.25,6.38-2.72,7.64.85,17.22,8.92,20.36Z"/>
        <path d="M742.71,368.37c-5.35,3.97-11.21.46-14.29-4.05-3.52-5.16-2.66-12.4,3.55-15.09s14.98,1.98,15.38,9.24c.18,3.3-1.99,7.93-4.64,9.9ZM730.3,354.68c-2.33,4.16-.14,9.6,4.46,11.87,3.64,1.8,7.95-1.42,9.13-4.78,1.24-3.53-.45-7.08-3.39-9.04s-7.35-1.92-9.42,1.17l.61.57c2.88-1.69,7.52-1.42,9.87,1.72,1.65,2.21,1.05,5.89-1.2,7.31-.24-2.21.54-5.47-1.01-7.06-1.88-1.92-5.33-.87-7.67-.44.3-1.16-.55-1.68-1.38-1.31Z"/>
        <path d="M797.6,164.09c-3.69,8.03-11.29,6.69-19.42,5.63-3.57-.46-7.01-1.04-9.03-3.95,8.34-6.59,19.29-5.9,28.45-1.68ZM782.38,167.92c4.03.93,7.49.4,10.95-2.05-6.09-2.82-13.88-4.3-19.35.11l8.4,1.95Z"/>
        <path d="M775.18,176.17l-21.65-2.86c-.57-.08-1.4-1.02-1.23-1.34.23-.43,1.13-.89,1.91-.8l23.02,2.43c-.31.87-1.1,1.78-2.04,2.57Z"/>
        <path d="M792.49,177.47c-5.7.53-10.68-.56-15.47-1.14,1.95-2.83,4.01-2.49,6.42-2.23l8.25.9c1.2.13,1.82,1.39.8,2.47Z"/>
        <path d="M986.92,217.48c-.69-.74-1.68-2.44-1.67-3.89l.15-18.2c1.25,1.47,1.35,3.29,1.84,5.16l-.31,16.93Z"/>
        <path d="M983.32,184.52c2.55-6.17,5.91-11.51,11.12-16.14-2.84,6.1-6.3,11.03-11.12,16.14Z"/>
      </g>
      <path d="M730.12,595.61c17.8,16.49,18.82,44.02,1.95,54.63-8.17,5.14-16.71,5.53-25.51,1.8-13.75-5.83-22.91-18.38-25.74-33.27-2.28-12.04,3.1-24.84,14.45-30.03,12.17-5.57,25.41-1.88,34.85,6.87ZM740.23,635.16c5.5-21.56-8.72-43.05-29.94-46.47-7.84-1.27-15.54,2.11-20.48,6.95s-7.38,12.39-6.67,20.02c1.5,16.19,12.08,29.95,27.55,35.34,12.23,4.26,26.2-2.72,29.54-15.83Z"/>
      <path d="M522.05,342.42c-2.22-.81-1.82-2.56-1.82-4.84l.02-15.05c3.33,6.37,1.76,12.32,1.8,19.89Z"/>
      <path d="M720.58,632.19c-9.16.05-16.13-5.78-19.22-13.74-2.27-5.84-.83-11.84,3.29-16.04s10.97-4.84,17.07-2.22c8.9,3.82,12.39,14.07,9.59,23.37-1.44,4.78-5.04,8.61-10.73,8.64ZM728.92,618.59c-2.98,4.03-6.81,6.99-11.47,5.75-5.17-1.38-7.99-6.19-8.44-10.32-.57-5.29,1.29-9.06,5.49-12.34-6.39-.35-10.61,4.88-10.49,10.89.14,7.08,4.55,13.88,11.28,15.68,3.64.97,7.38.65,10.09-1.85,1.7-1.57,3.77-4.51,3.54-7.8ZM720.95,617.91c3.32-4.27,2.49-7.47-.1-10-.85-.84-3.07-3.69-4.68-2.44-3.58,2.79-3.33,8.57-2.54,12.25.54-1.18,1.48-1.94,2.04-1.82,1.9.72,3.88,2.13,5.27,2.02Z"/>
    </g>
    <g>
      <g>
        <g>
          <path d="M1114.3,121.26c-10.95-.56-21.74-3.79-32.2-7.57l32.2,7.57Z"/>
          <path d="M1119.68,115.68l-16.53-3.46.61-.76,16.53,3.45c-.35.31-.57.65-.6.77Z"/>
        </g>
        <path d="M1244.14,151.07c-7.55,1.59-15.18,2.08-23.01,1.03l10.19-1.31c3.96-.51,7.78-.53,12.83.28Z"/>
        <path d="M1288.1,144.99c-6.2,1.52-12.78,3.54-19.95,2.03l19.95-2.03Z"/>
      </g>
      <g>
        <path d="M699.72,96.47l-21.88,5.2c-.38.09-1.09.11-1.57-.64l23.86-5.49c.09.14.26.66-.4.93Z"/>
        <path d="M654.05,95.11c2.05.78,3.15.26,4.5,1.18-4.96.66-8.82-.29-13.39-1.05,1.39-1.58,4.36-.31,5.64-.82,2.74-1.99,5.21-2.72,7.77-1.32-2.07.46-3.18.23-4.52,2.01Z"/>
        <path d="M698.14,73.2c3.9-4.89,3.54-9.77,1.01-15.84,4.66,3.83,5.01,12.69-1.01,15.84Z"/>
        <path d="M538.53,22.42c.22-.56,1.25-1.18,1.2-1.46-.07-.44-.56-1.18-1.55-1.98l5.5-1.23c.15,2.01.4,3.43-.73,4.06-1.67.94-3.24,2.12-4.43.61Z"/>
        <path d="M609.19,76.04c2.54,3.1-7.8,3.26-17.76,1.67,5.19-3.06,17.35-2.17,17.76-1.67Z"/>
      </g>
    </g>
  </g>
</svg>