<?xml version="1.0" encoding="UTF-8"?>
<svg id="Ebene_1" data-name="Ebene 1" xmlns="http://www.w3.org/2000/svg" viewBox="0 0 817 135" fill="#0b0336">
  <path d="M333.8,133.49c-14.38,2.67-22.98-2.72-28.84-15.41l-11.61-26.42-17.98-39.15-33.18,71.58c-5.64,12.16-14.35,10.42-28.66,9.23l45.89-97.83,14.66-32.5c.33-.74,1.66-1.97,2.39-1.99s2.24,1.29,2.54,2.03l9.9,24.17,16.44,37.45,20.11,43.79c3.36,7.31,7.32,17.72,8.33,25.05Z"/>
  <path d="M817,15.97l-.02,2.03-8.05,18.09-28.99,69.75c-3.57,8.59-5.65,16.54-10.92,24.55-2.5,3.8-12.7,5.99-15.58,1.28-6.63-10.86-11.11-22.74-15.36-34.66l-11.81-33.07c-4.6,6.59-5.89,12.65-8.26,19.17l-10.08,27.79c-3.1,8.56-7.23,20.57-14.55,21.26-7.94.75-13.83-6.88-17.14-15.38l-7.03-18.07-13.71-34.28-17.81-44.32.79-3.9c.12-.61,2.04-1.23,2.84-1.22l12.45.25c5.84.12,8.79,5.64,10.62,10.38l26.37,68.55c8.89-20.4,15.65-39.06,22.7-58.71l10.72-29.16c.42-.5,1.8-2.36,2.32-1.98l2.6,1.9,7.91,24.92,23.22,63.72,30.78-72.71c1.61-3.79,4.89-6.84,9.21-6.94l12.81-.29c.92-.02,3.52.7,3.98,1.06Z"/>
  <path d="M445.23,34.96l-36.05,80.13c-4.65,10.33-8.95,19.67-18.37,18.7-3.49-.36-6.6-3.62-8.31-7.38l-18.14-39.72-18.34-41.58-11.98-29.36c7.82-1.54,13.42-1.17,20.83-.59,2.56,2.32,5.05,5.14,6.54,8.55l31.63,72.47,34.29-74.62c3.78-8.22,16.15-8.43,25.16-4.4l-7.24,17.79Z"/>
  <path d="M499.77,126.74c-.01,7.52-8.38,7.19-19.72,5.82-2.36-.29-3.79-5.52-3.8-8.2l-.22-103.19c0-4.03,3.16-7.52,7.02-7.08l12.61,1.42c1.95.22,4.29,4.31,4.29,6.59l-.19,104.64Z"/>
  <path d="M555.15,83.18l.24,30.81,59.71.02c1.52,6.32,1.11,12.06-.6,18.52-3.95.88-7.61,1.63-11.47,1.55l-24.67-.56c-9.06-.21-18.2-.82-27.4-.25-6.24.39-11.7,1.41-17.84-1.59-1.17-12.49-1.03-24.18-1.05-36.73l-.09-71.86c0-4.02,2.97-7.94,7.55-7.95l69.33-.14c5.32-.01,8.19,3.89,8.18,9.15,0,1.87-.59,5.27-1.42,6.73s-4.06,3.01-5.97,3.01l-54.59.19-.08,29.9,51.98.03-.09,12.9c-.02,3.03-2.76,6.15-5.9,6.07l-22.98-.59-22.85.78Z"/>
  <path d="M.05,118.89l-.05-102.89c1.44-.59,3.92-.97,5.98-.97l79.03-.1c1.02,6.32,1.09,11.99.32,19.01l-62.26.12-.12,29.85,53.63.15c.72,4.45,1.2,11.16-2.52,15.07-3.52,3.7-10.09,3.7-14.98,3.74l-36.03.28-.08,30.85,63.02.02-.21,19.78c-19.02.13-36.36,1.25-54.47-.26l-24.69-2.06c-7.84-.65-4.26-7.24-6.58-12.58Z"/>
  <path d="M189.17,110.27c6,7.76,10.83,14.31,16.59,23.3-8.84.52-15.82.49-24.18.23-9.33-11.71-17.32-22.87-25.42-34.99-1.4-2.1-3.16-3.97-5.65-6.67l-24.67,36.69c-1.95,2.91-6.39,5.24-9.61,5.21l-20.34-.2,5.07-7.89,16.85-23.08,20.32-30.18c-6.23-9.51-12.01-19.06-18.69-28.1-7.36-9.96-15.23-18.05-21.4-30.1,14.93-.57,24.11-2.4,31.72,8.72l20.62,30.12,22.79-32.2c2.37-3.35,5.97-6.49,10.42-6.59l13.92-.29c.65-.01,2.22.88,2.49,1.43s-.01,2.71-.4,3.27l-14.15,20.43-21.24,29.7c-1.02,1.43.29,5.44,1.29,6.37l23.66,34.82Z"/>
</svg>